%TF.GenerationSoftware,KiCad,Pcbnew,9.0.2*%
%TF.CreationDate,2025-08-31T01:54:14-04:00*%
%TF.ProjectId,MCU_Datalogger,4d43555f-4461-4746-916c-6f676765722e,1*%
%TF.SameCoordinates,Original*%
%TF.FileFunction,Legend,Bot*%
%TF.FilePolarity,Positive*%
%FSLAX46Y46*%
G04 Gerber Fmt 4.6, Leading zero omitted, Abs format (unit mm)*
G04 Created by KiCad (PCBNEW 9.0.2) date 2025-08-31 01:54:14*
%MOMM*%
%LPD*%
G01*
G04 APERTURE LIST*
%ADD10C,0.100000*%
%ADD11C,0.300000*%
%ADD12C,0.200000*%
%ADD13C,0.010000*%
G04 APERTURE END LIST*
D10*
X128837500Y-113525000D02*
X139212500Y-113525000D01*
X139212500Y-115325000D01*
X128837500Y-115325000D01*
X128837500Y-113525000D01*
X138843734Y-113942657D02*
X138796115Y-113895038D01*
X138796115Y-113895038D02*
X138700877Y-113847419D01*
X138700877Y-113847419D02*
X138462782Y-113847419D01*
X138462782Y-113847419D02*
X138367544Y-113895038D01*
X138367544Y-113895038D02*
X138319925Y-113942657D01*
X138319925Y-113942657D02*
X138272306Y-114037895D01*
X138272306Y-114037895D02*
X138272306Y-114133133D01*
X138272306Y-114133133D02*
X138319925Y-114275990D01*
X138319925Y-114275990D02*
X138891353Y-114847419D01*
X138891353Y-114847419D02*
X138272306Y-114847419D01*
X136605639Y-114847419D02*
X137081829Y-114847419D01*
X137081829Y-114847419D02*
X137081829Y-113847419D01*
X135843734Y-114847419D02*
X135843734Y-114323609D01*
X135843734Y-114323609D02*
X135891353Y-114228371D01*
X135891353Y-114228371D02*
X135986591Y-114180752D01*
X135986591Y-114180752D02*
X136177067Y-114180752D01*
X136177067Y-114180752D02*
X136272305Y-114228371D01*
X135843734Y-114799800D02*
X135938972Y-114847419D01*
X135938972Y-114847419D02*
X136177067Y-114847419D01*
X136177067Y-114847419D02*
X136272305Y-114799800D01*
X136272305Y-114799800D02*
X136319924Y-114704561D01*
X136319924Y-114704561D02*
X136319924Y-114609323D01*
X136319924Y-114609323D02*
X136272305Y-114514085D01*
X136272305Y-114514085D02*
X136177067Y-114466466D01*
X136177067Y-114466466D02*
X135938972Y-114466466D01*
X135938972Y-114466466D02*
X135843734Y-114418847D01*
X135462781Y-114180752D02*
X135224686Y-114847419D01*
X134986591Y-114180752D02*
X135224686Y-114847419D01*
X135224686Y-114847419D02*
X135319924Y-115085514D01*
X135319924Y-115085514D02*
X135367543Y-115133133D01*
X135367543Y-115133133D02*
X135462781Y-115180752D01*
X134224686Y-114799800D02*
X134319924Y-114847419D01*
X134319924Y-114847419D02*
X134510400Y-114847419D01*
X134510400Y-114847419D02*
X134605638Y-114799800D01*
X134605638Y-114799800D02*
X134653257Y-114704561D01*
X134653257Y-114704561D02*
X134653257Y-114323609D01*
X134653257Y-114323609D02*
X134605638Y-114228371D01*
X134605638Y-114228371D02*
X134510400Y-114180752D01*
X134510400Y-114180752D02*
X134319924Y-114180752D01*
X134319924Y-114180752D02*
X134224686Y-114228371D01*
X134224686Y-114228371D02*
X134177067Y-114323609D01*
X134177067Y-114323609D02*
X134177067Y-114418847D01*
X134177067Y-114418847D02*
X134653257Y-114514085D01*
X133748495Y-114847419D02*
X133748495Y-114180752D01*
X133748495Y-114371228D02*
X133700876Y-114275990D01*
X133700876Y-114275990D02*
X133653257Y-114228371D01*
X133653257Y-114228371D02*
X133558019Y-114180752D01*
X133558019Y-114180752D02*
X133462781Y-114180752D01*
X133177066Y-114799800D02*
X133081828Y-114847419D01*
X133081828Y-114847419D02*
X132891352Y-114847419D01*
X132891352Y-114847419D02*
X132796114Y-114799800D01*
X132796114Y-114799800D02*
X132748495Y-114704561D01*
X132748495Y-114704561D02*
X132748495Y-114656942D01*
X132748495Y-114656942D02*
X132796114Y-114561704D01*
X132796114Y-114561704D02*
X132891352Y-114514085D01*
X132891352Y-114514085D02*
X133034209Y-114514085D01*
X133034209Y-114514085D02*
X133129447Y-114466466D01*
X133129447Y-114466466D02*
X133177066Y-114371228D01*
X133177066Y-114371228D02*
X133177066Y-114323609D01*
X133177066Y-114323609D02*
X133129447Y-114228371D01*
X133129447Y-114228371D02*
X133034209Y-114180752D01*
X133034209Y-114180752D02*
X132891352Y-114180752D01*
X132891352Y-114180752D02*
X132796114Y-114228371D01*
X131558018Y-114847419D02*
X131558018Y-113847419D01*
X131558018Y-113847419D02*
X131177066Y-113847419D01*
X131177066Y-113847419D02*
X131081828Y-113895038D01*
X131081828Y-113895038D02*
X131034209Y-113942657D01*
X131034209Y-113942657D02*
X130986590Y-114037895D01*
X130986590Y-114037895D02*
X130986590Y-114180752D01*
X130986590Y-114180752D02*
X131034209Y-114275990D01*
X131034209Y-114275990D02*
X131081828Y-114323609D01*
X131081828Y-114323609D02*
X131177066Y-114371228D01*
X131177066Y-114371228D02*
X131558018Y-114371228D01*
X129986590Y-114752180D02*
X130034209Y-114799800D01*
X130034209Y-114799800D02*
X130177066Y-114847419D01*
X130177066Y-114847419D02*
X130272304Y-114847419D01*
X130272304Y-114847419D02*
X130415161Y-114799800D01*
X130415161Y-114799800D02*
X130510399Y-114704561D01*
X130510399Y-114704561D02*
X130558018Y-114609323D01*
X130558018Y-114609323D02*
X130605637Y-114418847D01*
X130605637Y-114418847D02*
X130605637Y-114275990D01*
X130605637Y-114275990D02*
X130558018Y-114085514D01*
X130558018Y-114085514D02*
X130510399Y-113990276D01*
X130510399Y-113990276D02*
X130415161Y-113895038D01*
X130415161Y-113895038D02*
X130272304Y-113847419D01*
X130272304Y-113847419D02*
X130177066Y-113847419D01*
X130177066Y-113847419D02*
X130034209Y-113895038D01*
X130034209Y-113895038D02*
X129986590Y-113942657D01*
X129224685Y-114323609D02*
X129081828Y-114371228D01*
X129081828Y-114371228D02*
X129034209Y-114418847D01*
X129034209Y-114418847D02*
X128986590Y-114514085D01*
X128986590Y-114514085D02*
X128986590Y-114656942D01*
X128986590Y-114656942D02*
X129034209Y-114752180D01*
X129034209Y-114752180D02*
X129081828Y-114799800D01*
X129081828Y-114799800D02*
X129177066Y-114847419D01*
X129177066Y-114847419D02*
X129558018Y-114847419D01*
X129558018Y-114847419D02*
X129558018Y-113847419D01*
X129558018Y-113847419D02*
X129224685Y-113847419D01*
X129224685Y-113847419D02*
X129129447Y-113895038D01*
X129129447Y-113895038D02*
X129081828Y-113942657D01*
X129081828Y-113942657D02*
X129034209Y-114037895D01*
X129034209Y-114037895D02*
X129034209Y-114133133D01*
X129034209Y-114133133D02*
X129081828Y-114228371D01*
X129081828Y-114228371D02*
X129129447Y-114275990D01*
X129129447Y-114275990D02*
X129224685Y-114323609D01*
X129224685Y-114323609D02*
X129558018Y-114323609D01*
X120592544Y-109708940D02*
X120592544Y-108908940D01*
X120592544Y-108908940D02*
X120425877Y-108908940D01*
X120425877Y-108908940D02*
X120325877Y-108947035D01*
X120325877Y-108947035D02*
X120259211Y-109023225D01*
X120259211Y-109023225D02*
X120225877Y-109099416D01*
X120225877Y-109099416D02*
X120192544Y-109251797D01*
X120192544Y-109251797D02*
X120192544Y-109366083D01*
X120192544Y-109366083D02*
X120225877Y-109518464D01*
X120225877Y-109518464D02*
X120259211Y-109594654D01*
X120259211Y-109594654D02*
X120325877Y-109670845D01*
X120325877Y-109670845D02*
X120425877Y-109708940D01*
X120425877Y-109708940D02*
X120592544Y-109708940D01*
X119592544Y-109708940D02*
X119592544Y-109289892D01*
X119592544Y-109289892D02*
X119625877Y-109213702D01*
X119625877Y-109213702D02*
X119692544Y-109175606D01*
X119692544Y-109175606D02*
X119825877Y-109175606D01*
X119825877Y-109175606D02*
X119892544Y-109213702D01*
X119592544Y-109670845D02*
X119659211Y-109708940D01*
X119659211Y-109708940D02*
X119825877Y-109708940D01*
X119825877Y-109708940D02*
X119892544Y-109670845D01*
X119892544Y-109670845D02*
X119925877Y-109594654D01*
X119925877Y-109594654D02*
X119925877Y-109518464D01*
X119925877Y-109518464D02*
X119892544Y-109442273D01*
X119892544Y-109442273D02*
X119825877Y-109404178D01*
X119825877Y-109404178D02*
X119659211Y-109404178D01*
X119659211Y-109404178D02*
X119592544Y-109366083D01*
X119359211Y-109175606D02*
X119092544Y-109175606D01*
X119259211Y-108908940D02*
X119259211Y-109594654D01*
X119259211Y-109594654D02*
X119225878Y-109670845D01*
X119225878Y-109670845D02*
X119159211Y-109708940D01*
X119159211Y-109708940D02*
X119092544Y-109708940D01*
X118559211Y-109708940D02*
X118559211Y-109289892D01*
X118559211Y-109289892D02*
X118592544Y-109213702D01*
X118592544Y-109213702D02*
X118659211Y-109175606D01*
X118659211Y-109175606D02*
X118792544Y-109175606D01*
X118792544Y-109175606D02*
X118859211Y-109213702D01*
X118559211Y-109670845D02*
X118625878Y-109708940D01*
X118625878Y-109708940D02*
X118792544Y-109708940D01*
X118792544Y-109708940D02*
X118859211Y-109670845D01*
X118859211Y-109670845D02*
X118892544Y-109594654D01*
X118892544Y-109594654D02*
X118892544Y-109518464D01*
X118892544Y-109518464D02*
X118859211Y-109442273D01*
X118859211Y-109442273D02*
X118792544Y-109404178D01*
X118792544Y-109404178D02*
X118625878Y-109404178D01*
X118625878Y-109404178D02*
X118559211Y-109366083D01*
X117592545Y-109708940D02*
X117659212Y-109670845D01*
X117659212Y-109670845D02*
X117692545Y-109594654D01*
X117692545Y-109594654D02*
X117692545Y-108908940D01*
X117225878Y-109708940D02*
X117292545Y-109670845D01*
X117292545Y-109670845D02*
X117325878Y-109632749D01*
X117325878Y-109632749D02*
X117359211Y-109556559D01*
X117359211Y-109556559D02*
X117359211Y-109327987D01*
X117359211Y-109327987D02*
X117325878Y-109251797D01*
X117325878Y-109251797D02*
X117292545Y-109213702D01*
X117292545Y-109213702D02*
X117225878Y-109175606D01*
X117225878Y-109175606D02*
X117125878Y-109175606D01*
X117125878Y-109175606D02*
X117059211Y-109213702D01*
X117059211Y-109213702D02*
X117025878Y-109251797D01*
X117025878Y-109251797D02*
X116992545Y-109327987D01*
X116992545Y-109327987D02*
X116992545Y-109556559D01*
X116992545Y-109556559D02*
X117025878Y-109632749D01*
X117025878Y-109632749D02*
X117059211Y-109670845D01*
X117059211Y-109670845D02*
X117125878Y-109708940D01*
X117125878Y-109708940D02*
X117225878Y-109708940D01*
X116392545Y-109175606D02*
X116392545Y-109823225D01*
X116392545Y-109823225D02*
X116425878Y-109899416D01*
X116425878Y-109899416D02*
X116459212Y-109937511D01*
X116459212Y-109937511D02*
X116525878Y-109975606D01*
X116525878Y-109975606D02*
X116625878Y-109975606D01*
X116625878Y-109975606D02*
X116692545Y-109937511D01*
X116392545Y-109670845D02*
X116459212Y-109708940D01*
X116459212Y-109708940D02*
X116592545Y-109708940D01*
X116592545Y-109708940D02*
X116659212Y-109670845D01*
X116659212Y-109670845D02*
X116692545Y-109632749D01*
X116692545Y-109632749D02*
X116725878Y-109556559D01*
X116725878Y-109556559D02*
X116725878Y-109327987D01*
X116725878Y-109327987D02*
X116692545Y-109251797D01*
X116692545Y-109251797D02*
X116659212Y-109213702D01*
X116659212Y-109213702D02*
X116592545Y-109175606D01*
X116592545Y-109175606D02*
X116459212Y-109175606D01*
X116459212Y-109175606D02*
X116392545Y-109213702D01*
X115759212Y-109175606D02*
X115759212Y-109823225D01*
X115759212Y-109823225D02*
X115792545Y-109899416D01*
X115792545Y-109899416D02*
X115825879Y-109937511D01*
X115825879Y-109937511D02*
X115892545Y-109975606D01*
X115892545Y-109975606D02*
X115992545Y-109975606D01*
X115992545Y-109975606D02*
X116059212Y-109937511D01*
X115759212Y-109670845D02*
X115825879Y-109708940D01*
X115825879Y-109708940D02*
X115959212Y-109708940D01*
X115959212Y-109708940D02*
X116025879Y-109670845D01*
X116025879Y-109670845D02*
X116059212Y-109632749D01*
X116059212Y-109632749D02*
X116092545Y-109556559D01*
X116092545Y-109556559D02*
X116092545Y-109327987D01*
X116092545Y-109327987D02*
X116059212Y-109251797D01*
X116059212Y-109251797D02*
X116025879Y-109213702D01*
X116025879Y-109213702D02*
X115959212Y-109175606D01*
X115959212Y-109175606D02*
X115825879Y-109175606D01*
X115825879Y-109175606D02*
X115759212Y-109213702D01*
X115159212Y-109670845D02*
X115225879Y-109708940D01*
X115225879Y-109708940D02*
X115359212Y-109708940D01*
X115359212Y-109708940D02*
X115425879Y-109670845D01*
X115425879Y-109670845D02*
X115459212Y-109594654D01*
X115459212Y-109594654D02*
X115459212Y-109289892D01*
X115459212Y-109289892D02*
X115425879Y-109213702D01*
X115425879Y-109213702D02*
X115359212Y-109175606D01*
X115359212Y-109175606D02*
X115225879Y-109175606D01*
X115225879Y-109175606D02*
X115159212Y-109213702D01*
X115159212Y-109213702D02*
X115125879Y-109289892D01*
X115125879Y-109289892D02*
X115125879Y-109366083D01*
X115125879Y-109366083D02*
X115459212Y-109442273D01*
X114825879Y-109708940D02*
X114825879Y-109175606D01*
X114825879Y-109327987D02*
X114792546Y-109251797D01*
X114792546Y-109251797D02*
X114759212Y-109213702D01*
X114759212Y-109213702D02*
X114692546Y-109175606D01*
X114692546Y-109175606D02*
X114625879Y-109175606D01*
X113925880Y-109175606D02*
X113792546Y-109708940D01*
X113792546Y-109708940D02*
X113659213Y-109327987D01*
X113659213Y-109327987D02*
X113525880Y-109708940D01*
X113525880Y-109708940D02*
X113392546Y-109175606D01*
X112625880Y-108870845D02*
X113225880Y-109899416D01*
X120625877Y-110768323D02*
X120292544Y-110768323D01*
X120692544Y-110996895D02*
X120459211Y-110196895D01*
X120459211Y-110196895D02*
X120225877Y-110996895D01*
X120092544Y-110196895D02*
X119692544Y-110196895D01*
X119892544Y-110996895D02*
X119892544Y-110196895D01*
X119459211Y-110996895D02*
X119459211Y-110196895D01*
X119459211Y-110196895D02*
X119225878Y-110768323D01*
X119225878Y-110768323D02*
X118992544Y-110196895D01*
X118992544Y-110196895D02*
X118992544Y-110996895D01*
X118392544Y-110958800D02*
X118459211Y-110996895D01*
X118459211Y-110996895D02*
X118592544Y-110996895D01*
X118592544Y-110996895D02*
X118659211Y-110958800D01*
X118659211Y-110958800D02*
X118692544Y-110882609D01*
X118692544Y-110882609D02*
X118692544Y-110577847D01*
X118692544Y-110577847D02*
X118659211Y-110501657D01*
X118659211Y-110501657D02*
X118592544Y-110463561D01*
X118592544Y-110463561D02*
X118459211Y-110463561D01*
X118459211Y-110463561D02*
X118392544Y-110501657D01*
X118392544Y-110501657D02*
X118359211Y-110577847D01*
X118359211Y-110577847D02*
X118359211Y-110654038D01*
X118359211Y-110654038D02*
X118692544Y-110730228D01*
X117759211Y-110463561D02*
X117759211Y-111111180D01*
X117759211Y-111111180D02*
X117792544Y-111187371D01*
X117792544Y-111187371D02*
X117825878Y-111225466D01*
X117825878Y-111225466D02*
X117892544Y-111263561D01*
X117892544Y-111263561D02*
X117992544Y-111263561D01*
X117992544Y-111263561D02*
X118059211Y-111225466D01*
X117759211Y-110958800D02*
X117825878Y-110996895D01*
X117825878Y-110996895D02*
X117959211Y-110996895D01*
X117959211Y-110996895D02*
X118025878Y-110958800D01*
X118025878Y-110958800D02*
X118059211Y-110920704D01*
X118059211Y-110920704D02*
X118092544Y-110844514D01*
X118092544Y-110844514D02*
X118092544Y-110615942D01*
X118092544Y-110615942D02*
X118059211Y-110539752D01*
X118059211Y-110539752D02*
X118025878Y-110501657D01*
X118025878Y-110501657D02*
X117959211Y-110463561D01*
X117959211Y-110463561D02*
X117825878Y-110463561D01*
X117825878Y-110463561D02*
X117759211Y-110501657D01*
X117125878Y-110996895D02*
X117125878Y-110577847D01*
X117125878Y-110577847D02*
X117159211Y-110501657D01*
X117159211Y-110501657D02*
X117225878Y-110463561D01*
X117225878Y-110463561D02*
X117359211Y-110463561D01*
X117359211Y-110463561D02*
X117425878Y-110501657D01*
X117125878Y-110958800D02*
X117192545Y-110996895D01*
X117192545Y-110996895D02*
X117359211Y-110996895D01*
X117359211Y-110996895D02*
X117425878Y-110958800D01*
X117425878Y-110958800D02*
X117459211Y-110882609D01*
X117459211Y-110882609D02*
X117459211Y-110806419D01*
X117459211Y-110806419D02*
X117425878Y-110730228D01*
X117425878Y-110730228D02*
X117359211Y-110692133D01*
X117359211Y-110692133D02*
X117192545Y-110692133D01*
X117192545Y-110692133D02*
X117125878Y-110654038D01*
X116859212Y-110196895D02*
X116425878Y-110196895D01*
X116425878Y-110196895D02*
X116659212Y-110501657D01*
X116659212Y-110501657D02*
X116559212Y-110501657D01*
X116559212Y-110501657D02*
X116492545Y-110539752D01*
X116492545Y-110539752D02*
X116459212Y-110577847D01*
X116459212Y-110577847D02*
X116425878Y-110654038D01*
X116425878Y-110654038D02*
X116425878Y-110844514D01*
X116425878Y-110844514D02*
X116459212Y-110920704D01*
X116459212Y-110920704D02*
X116492545Y-110958800D01*
X116492545Y-110958800D02*
X116559212Y-110996895D01*
X116559212Y-110996895D02*
X116759212Y-110996895D01*
X116759212Y-110996895D02*
X116825878Y-110958800D01*
X116825878Y-110958800D02*
X116859212Y-110920704D01*
X116159211Y-110273085D02*
X116125878Y-110234990D01*
X116125878Y-110234990D02*
X116059211Y-110196895D01*
X116059211Y-110196895D02*
X115892545Y-110196895D01*
X115892545Y-110196895D02*
X115825878Y-110234990D01*
X115825878Y-110234990D02*
X115792545Y-110273085D01*
X115792545Y-110273085D02*
X115759211Y-110349276D01*
X115759211Y-110349276D02*
X115759211Y-110425466D01*
X115759211Y-110425466D02*
X115792545Y-110539752D01*
X115792545Y-110539752D02*
X116192545Y-110996895D01*
X116192545Y-110996895D02*
X115759211Y-110996895D01*
X115359211Y-110539752D02*
X115425878Y-110501657D01*
X115425878Y-110501657D02*
X115459211Y-110463561D01*
X115459211Y-110463561D02*
X115492544Y-110387371D01*
X115492544Y-110387371D02*
X115492544Y-110349276D01*
X115492544Y-110349276D02*
X115459211Y-110273085D01*
X115459211Y-110273085D02*
X115425878Y-110234990D01*
X115425878Y-110234990D02*
X115359211Y-110196895D01*
X115359211Y-110196895D02*
X115225878Y-110196895D01*
X115225878Y-110196895D02*
X115159211Y-110234990D01*
X115159211Y-110234990D02*
X115125878Y-110273085D01*
X115125878Y-110273085D02*
X115092544Y-110349276D01*
X115092544Y-110349276D02*
X115092544Y-110387371D01*
X115092544Y-110387371D02*
X115125878Y-110463561D01*
X115125878Y-110463561D02*
X115159211Y-110501657D01*
X115159211Y-110501657D02*
X115225878Y-110539752D01*
X115225878Y-110539752D02*
X115359211Y-110539752D01*
X115359211Y-110539752D02*
X115425878Y-110577847D01*
X115425878Y-110577847D02*
X115459211Y-110615942D01*
X115459211Y-110615942D02*
X115492544Y-110692133D01*
X115492544Y-110692133D02*
X115492544Y-110844514D01*
X115492544Y-110844514D02*
X115459211Y-110920704D01*
X115459211Y-110920704D02*
X115425878Y-110958800D01*
X115425878Y-110958800D02*
X115359211Y-110996895D01*
X115359211Y-110996895D02*
X115225878Y-110996895D01*
X115225878Y-110996895D02*
X115159211Y-110958800D01*
X115159211Y-110958800D02*
X115125878Y-110920704D01*
X115125878Y-110920704D02*
X115092544Y-110844514D01*
X115092544Y-110844514D02*
X115092544Y-110692133D01*
X115092544Y-110692133D02*
X115125878Y-110615942D01*
X115125878Y-110615942D02*
X115159211Y-110577847D01*
X115159211Y-110577847D02*
X115225878Y-110539752D01*
X114792544Y-110996895D02*
X114792544Y-110196895D01*
X114792544Y-110196895D02*
X114525877Y-110196895D01*
X114525877Y-110196895D02*
X114459211Y-110234990D01*
X114459211Y-110234990D02*
X114425877Y-110273085D01*
X114425877Y-110273085D02*
X114392544Y-110349276D01*
X114392544Y-110349276D02*
X114392544Y-110463561D01*
X114392544Y-110463561D02*
X114425877Y-110539752D01*
X114425877Y-110539752D02*
X114459211Y-110577847D01*
X114459211Y-110577847D02*
X114525877Y-110615942D01*
X114525877Y-110615942D02*
X114792544Y-110615942D01*
D11*
X123920489Y-122825828D02*
X123920489Y-121325828D01*
X123920489Y-121325828D02*
X123420489Y-122397257D01*
X123420489Y-122397257D02*
X122920489Y-121325828D01*
X122920489Y-121325828D02*
X122920489Y-122825828D01*
X121563346Y-122825828D02*
X121563346Y-122040114D01*
X121563346Y-122040114D02*
X121634774Y-121897257D01*
X121634774Y-121897257D02*
X121777631Y-121825828D01*
X121777631Y-121825828D02*
X122063346Y-121825828D01*
X122063346Y-121825828D02*
X122206203Y-121897257D01*
X121563346Y-122754400D02*
X121706203Y-122825828D01*
X121706203Y-122825828D02*
X122063346Y-122825828D01*
X122063346Y-122825828D02*
X122206203Y-122754400D01*
X122206203Y-122754400D02*
X122277631Y-122611542D01*
X122277631Y-122611542D02*
X122277631Y-122468685D01*
X122277631Y-122468685D02*
X122206203Y-122325828D01*
X122206203Y-122325828D02*
X122063346Y-122254400D01*
X122063346Y-122254400D02*
X121706203Y-122254400D01*
X121706203Y-122254400D02*
X121563346Y-122182971D01*
X120206203Y-122825828D02*
X120206203Y-121325828D01*
X120206203Y-122754400D02*
X120349060Y-122825828D01*
X120349060Y-122825828D02*
X120634774Y-122825828D01*
X120634774Y-122825828D02*
X120777631Y-122754400D01*
X120777631Y-122754400D02*
X120849060Y-122682971D01*
X120849060Y-122682971D02*
X120920488Y-122540114D01*
X120920488Y-122540114D02*
X120920488Y-122111542D01*
X120920488Y-122111542D02*
X120849060Y-121968685D01*
X120849060Y-121968685D02*
X120777631Y-121897257D01*
X120777631Y-121897257D02*
X120634774Y-121825828D01*
X120634774Y-121825828D02*
X120349060Y-121825828D01*
X120349060Y-121825828D02*
X120206203Y-121897257D01*
X118920488Y-122754400D02*
X119063345Y-122825828D01*
X119063345Y-122825828D02*
X119349060Y-122825828D01*
X119349060Y-122825828D02*
X119491917Y-122754400D01*
X119491917Y-122754400D02*
X119563345Y-122611542D01*
X119563345Y-122611542D02*
X119563345Y-122040114D01*
X119563345Y-122040114D02*
X119491917Y-121897257D01*
X119491917Y-121897257D02*
X119349060Y-121825828D01*
X119349060Y-121825828D02*
X119063345Y-121825828D01*
X119063345Y-121825828D02*
X118920488Y-121897257D01*
X118920488Y-121897257D02*
X118849060Y-122040114D01*
X118849060Y-122040114D02*
X118849060Y-122182971D01*
X118849060Y-122182971D02*
X119563345Y-122325828D01*
X117063346Y-122825828D02*
X117063346Y-121325828D01*
X117063346Y-121897257D02*
X116920489Y-121825828D01*
X116920489Y-121825828D02*
X116634774Y-121825828D01*
X116634774Y-121825828D02*
X116491917Y-121897257D01*
X116491917Y-121897257D02*
X116420489Y-121968685D01*
X116420489Y-121968685D02*
X116349060Y-122111542D01*
X116349060Y-122111542D02*
X116349060Y-122540114D01*
X116349060Y-122540114D02*
X116420489Y-122682971D01*
X116420489Y-122682971D02*
X116491917Y-122754400D01*
X116491917Y-122754400D02*
X116634774Y-122825828D01*
X116634774Y-122825828D02*
X116920489Y-122825828D01*
X116920489Y-122825828D02*
X117063346Y-122754400D01*
X115849060Y-121825828D02*
X115491917Y-122825828D01*
X115134774Y-121825828D02*
X115491917Y-122825828D01*
X115491917Y-122825828D02*
X115634774Y-123182971D01*
X115634774Y-123182971D02*
X115706203Y-123254400D01*
X115706203Y-123254400D02*
X115849060Y-123325828D01*
X112706203Y-122825828D02*
X113420489Y-122825828D01*
X113420489Y-122825828D02*
X113420489Y-121325828D01*
X111563346Y-122825828D02*
X111563346Y-122040114D01*
X111563346Y-122040114D02*
X111634774Y-121897257D01*
X111634774Y-121897257D02*
X111777631Y-121825828D01*
X111777631Y-121825828D02*
X112063346Y-121825828D01*
X112063346Y-121825828D02*
X112206203Y-121897257D01*
X111563346Y-122754400D02*
X111706203Y-122825828D01*
X111706203Y-122825828D02*
X112063346Y-122825828D01*
X112063346Y-122825828D02*
X112206203Y-122754400D01*
X112206203Y-122754400D02*
X112277631Y-122611542D01*
X112277631Y-122611542D02*
X112277631Y-122468685D01*
X112277631Y-122468685D02*
X112206203Y-122325828D01*
X112206203Y-122325828D02*
X112063346Y-122254400D01*
X112063346Y-122254400D02*
X111706203Y-122254400D01*
X111706203Y-122254400D02*
X111563346Y-122182971D01*
X110849060Y-122825828D02*
X110849060Y-121825828D01*
X110849060Y-122111542D02*
X110777631Y-121968685D01*
X110777631Y-121968685D02*
X110706203Y-121897257D01*
X110706203Y-121897257D02*
X110563345Y-121825828D01*
X110563345Y-121825828D02*
X110420488Y-121825828D01*
X109991917Y-122754400D02*
X109849060Y-122825828D01*
X109849060Y-122825828D02*
X109563346Y-122825828D01*
X109563346Y-122825828D02*
X109420489Y-122754400D01*
X109420489Y-122754400D02*
X109349060Y-122611542D01*
X109349060Y-122611542D02*
X109349060Y-122540114D01*
X109349060Y-122540114D02*
X109420489Y-122397257D01*
X109420489Y-122397257D02*
X109563346Y-122325828D01*
X109563346Y-122325828D02*
X109777632Y-122325828D01*
X109777632Y-122325828D02*
X109920489Y-122254400D01*
X109920489Y-122254400D02*
X109991917Y-122111542D01*
X109991917Y-122111542D02*
X109991917Y-122040114D01*
X109991917Y-122040114D02*
X109920489Y-121897257D01*
X109920489Y-121897257D02*
X109777632Y-121825828D01*
X109777632Y-121825828D02*
X109563346Y-121825828D01*
X109563346Y-121825828D02*
X109420489Y-121897257D01*
X108777631Y-122754400D02*
X108634774Y-122825828D01*
X108634774Y-122825828D02*
X108349060Y-122825828D01*
X108349060Y-122825828D02*
X108206203Y-122754400D01*
X108206203Y-122754400D02*
X108134774Y-122611542D01*
X108134774Y-122611542D02*
X108134774Y-122540114D01*
X108134774Y-122540114D02*
X108206203Y-122397257D01*
X108206203Y-122397257D02*
X108349060Y-122325828D01*
X108349060Y-122325828D02*
X108563346Y-122325828D01*
X108563346Y-122325828D02*
X108706203Y-122254400D01*
X108706203Y-122254400D02*
X108777631Y-122111542D01*
X108777631Y-122111542D02*
X108777631Y-122040114D01*
X108777631Y-122040114D02*
X108706203Y-121897257D01*
X108706203Y-121897257D02*
X108563346Y-121825828D01*
X108563346Y-121825828D02*
X108349060Y-121825828D01*
X108349060Y-121825828D02*
X108206203Y-121897257D01*
X107277631Y-122825828D02*
X107420488Y-122754400D01*
X107420488Y-122754400D02*
X107491917Y-122682971D01*
X107491917Y-122682971D02*
X107563345Y-122540114D01*
X107563345Y-122540114D02*
X107563345Y-122111542D01*
X107563345Y-122111542D02*
X107491917Y-121968685D01*
X107491917Y-121968685D02*
X107420488Y-121897257D01*
X107420488Y-121897257D02*
X107277631Y-121825828D01*
X107277631Y-121825828D02*
X107063345Y-121825828D01*
X107063345Y-121825828D02*
X106920488Y-121897257D01*
X106920488Y-121897257D02*
X106849060Y-121968685D01*
X106849060Y-121968685D02*
X106777631Y-122111542D01*
X106777631Y-122111542D02*
X106777631Y-122540114D01*
X106777631Y-122540114D02*
X106849060Y-122682971D01*
X106849060Y-122682971D02*
X106920488Y-122754400D01*
X106920488Y-122754400D02*
X107063345Y-122825828D01*
X107063345Y-122825828D02*
X107277631Y-122825828D01*
X106134774Y-121825828D02*
X106134774Y-122825828D01*
X106134774Y-121968685D02*
X106063345Y-121897257D01*
X106063345Y-121897257D02*
X105920488Y-121825828D01*
X105920488Y-121825828D02*
X105706202Y-121825828D01*
X105706202Y-121825828D02*
X105563345Y-121897257D01*
X105563345Y-121897257D02*
X105491917Y-122040114D01*
X105491917Y-122040114D02*
X105491917Y-122825828D01*
X102777631Y-122682971D02*
X102849059Y-122754400D01*
X102849059Y-122754400D02*
X103063345Y-122825828D01*
X103063345Y-122825828D02*
X103206202Y-122825828D01*
X103206202Y-122825828D02*
X103420488Y-122754400D01*
X103420488Y-122754400D02*
X103563345Y-122611542D01*
X103563345Y-122611542D02*
X103634774Y-122468685D01*
X103634774Y-122468685D02*
X103706202Y-122182971D01*
X103706202Y-122182971D02*
X103706202Y-121968685D01*
X103706202Y-121968685D02*
X103634774Y-121682971D01*
X103634774Y-121682971D02*
X103563345Y-121540114D01*
X103563345Y-121540114D02*
X103420488Y-121397257D01*
X103420488Y-121397257D02*
X103206202Y-121325828D01*
X103206202Y-121325828D02*
X103063345Y-121325828D01*
X103063345Y-121325828D02*
X102849059Y-121397257D01*
X102849059Y-121397257D02*
X102777631Y-121468685D01*
X102134774Y-122825828D02*
X102134774Y-121825828D01*
X102134774Y-122111542D02*
X102063345Y-121968685D01*
X102063345Y-121968685D02*
X101991917Y-121897257D01*
X101991917Y-121897257D02*
X101849059Y-121825828D01*
X101849059Y-121825828D02*
X101706202Y-121825828D01*
X100563346Y-121825828D02*
X100563346Y-122825828D01*
X101206203Y-121825828D02*
X101206203Y-122611542D01*
X101206203Y-122611542D02*
X101134774Y-122754400D01*
X101134774Y-122754400D02*
X100991917Y-122825828D01*
X100991917Y-122825828D02*
X100777631Y-122825828D01*
X100777631Y-122825828D02*
X100634774Y-122754400D01*
X100634774Y-122754400D02*
X100563346Y-122682971D01*
X99991917Y-121825828D02*
X99206203Y-121825828D01*
X99206203Y-121825828D02*
X99991917Y-122825828D01*
X99991917Y-122825828D02*
X99206203Y-122825828D01*
X98063345Y-122754400D02*
X98206202Y-122825828D01*
X98206202Y-122825828D02*
X98491917Y-122825828D01*
X98491917Y-122825828D02*
X98634774Y-122754400D01*
X98634774Y-122754400D02*
X98706202Y-122611542D01*
X98706202Y-122611542D02*
X98706202Y-122040114D01*
X98706202Y-122040114D02*
X98634774Y-121897257D01*
X98634774Y-121897257D02*
X98491917Y-121825828D01*
X98491917Y-121825828D02*
X98206202Y-121825828D01*
X98206202Y-121825828D02*
X98063345Y-121897257D01*
X98063345Y-121897257D02*
X97991917Y-122040114D01*
X97991917Y-122040114D02*
X97991917Y-122182971D01*
X97991917Y-122182971D02*
X98706202Y-122325828D01*
D12*
X122225000Y-134087500D02*
X136925000Y-134087500D01*
X136925000Y-136737500D01*
X122225000Y-136737500D01*
X122225000Y-134087500D01*
D11*
X134434774Y-134575828D02*
X133934774Y-136075828D01*
X133934774Y-136075828D02*
X133434774Y-134575828D01*
X132363346Y-136004400D02*
X132506203Y-136075828D01*
X132506203Y-136075828D02*
X132791918Y-136075828D01*
X132791918Y-136075828D02*
X132934775Y-136004400D01*
X132934775Y-136004400D02*
X133006203Y-135861542D01*
X133006203Y-135861542D02*
X133006203Y-135290114D01*
X133006203Y-135290114D02*
X132934775Y-135147257D01*
X132934775Y-135147257D02*
X132791918Y-135075828D01*
X132791918Y-135075828D02*
X132506203Y-135075828D01*
X132506203Y-135075828D02*
X132363346Y-135147257D01*
X132363346Y-135147257D02*
X132291918Y-135290114D01*
X132291918Y-135290114D02*
X132291918Y-135432971D01*
X132291918Y-135432971D02*
X133006203Y-135575828D01*
X131649061Y-136075828D02*
X131649061Y-135075828D01*
X131649061Y-135361542D02*
X131577632Y-135218685D01*
X131577632Y-135218685D02*
X131506204Y-135147257D01*
X131506204Y-135147257D02*
X131363346Y-135075828D01*
X131363346Y-135075828D02*
X131220489Y-135075828D01*
X130791918Y-136004400D02*
X130649061Y-136075828D01*
X130649061Y-136075828D02*
X130363347Y-136075828D01*
X130363347Y-136075828D02*
X130220490Y-136004400D01*
X130220490Y-136004400D02*
X130149061Y-135861542D01*
X130149061Y-135861542D02*
X130149061Y-135790114D01*
X130149061Y-135790114D02*
X130220490Y-135647257D01*
X130220490Y-135647257D02*
X130363347Y-135575828D01*
X130363347Y-135575828D02*
X130577633Y-135575828D01*
X130577633Y-135575828D02*
X130720490Y-135504400D01*
X130720490Y-135504400D02*
X130791918Y-135361542D01*
X130791918Y-135361542D02*
X130791918Y-135290114D01*
X130791918Y-135290114D02*
X130720490Y-135147257D01*
X130720490Y-135147257D02*
X130577633Y-135075828D01*
X130577633Y-135075828D02*
X130363347Y-135075828D01*
X130363347Y-135075828D02*
X130220490Y-135147257D01*
X129506204Y-136075828D02*
X129506204Y-135075828D01*
X129506204Y-134575828D02*
X129577632Y-134647257D01*
X129577632Y-134647257D02*
X129506204Y-134718685D01*
X129506204Y-134718685D02*
X129434775Y-134647257D01*
X129434775Y-134647257D02*
X129506204Y-134575828D01*
X129506204Y-134575828D02*
X129506204Y-134718685D01*
X128577632Y-136075828D02*
X128720489Y-136004400D01*
X128720489Y-136004400D02*
X128791918Y-135932971D01*
X128791918Y-135932971D02*
X128863346Y-135790114D01*
X128863346Y-135790114D02*
X128863346Y-135361542D01*
X128863346Y-135361542D02*
X128791918Y-135218685D01*
X128791918Y-135218685D02*
X128720489Y-135147257D01*
X128720489Y-135147257D02*
X128577632Y-135075828D01*
X128577632Y-135075828D02*
X128363346Y-135075828D01*
X128363346Y-135075828D02*
X128220489Y-135147257D01*
X128220489Y-135147257D02*
X128149061Y-135218685D01*
X128149061Y-135218685D02*
X128077632Y-135361542D01*
X128077632Y-135361542D02*
X128077632Y-135790114D01*
X128077632Y-135790114D02*
X128149061Y-135932971D01*
X128149061Y-135932971D02*
X128220489Y-136004400D01*
X128220489Y-136004400D02*
X128363346Y-136075828D01*
X128363346Y-136075828D02*
X128577632Y-136075828D01*
X127434775Y-135075828D02*
X127434775Y-136075828D01*
X127434775Y-135218685D02*
X127363346Y-135147257D01*
X127363346Y-135147257D02*
X127220489Y-135075828D01*
X127220489Y-135075828D02*
X127006203Y-135075828D01*
X127006203Y-135075828D02*
X126863346Y-135147257D01*
X126863346Y-135147257D02*
X126791918Y-135290114D01*
X126791918Y-135290114D02*
X126791918Y-136075828D01*
X124149060Y-136075828D02*
X125006203Y-136075828D01*
X124577632Y-136075828D02*
X124577632Y-134575828D01*
X124577632Y-134575828D02*
X124720489Y-134790114D01*
X124720489Y-134790114D02*
X124863346Y-134932971D01*
X124863346Y-134932971D02*
X125006203Y-135004400D01*
D13*
%TO.C,REF\u002A\u002A*%
X105355406Y-130424949D02*
X105381127Y-130440647D01*
X105407778Y-130462227D01*
X105407778Y-131109684D01*
X105381127Y-131131264D01*
X105349767Y-131148739D01*
X105313966Y-131149575D01*
X105282528Y-131129082D01*
X105278652Y-131124416D01*
X105273186Y-131114949D01*
X105268979Y-131101267D01*
X105265867Y-131080748D01*
X105263687Y-131050768D01*
X105262276Y-131008704D01*
X105261471Y-130951932D01*
X105261107Y-130877830D01*
X105261022Y-130783773D01*
X105261022Y-130462227D01*
X105287673Y-130440647D01*
X105311386Y-130425877D01*
X105334400Y-130419067D01*
X105355406Y-130424949D01*
G36*
X105355406Y-130424949D02*
G01*
X105381127Y-130440647D01*
X105407778Y-130462227D01*
X105407778Y-131109684D01*
X105381127Y-131131264D01*
X105349767Y-131148739D01*
X105313966Y-131149575D01*
X105282528Y-131129082D01*
X105278652Y-131124416D01*
X105273186Y-131114949D01*
X105268979Y-131101267D01*
X105265867Y-131080748D01*
X105263687Y-131050768D01*
X105262276Y-131008704D01*
X105261471Y-130951932D01*
X105261107Y-130877830D01*
X105261022Y-130783773D01*
X105261022Y-130462227D01*
X105287673Y-130440647D01*
X105311386Y-130425877D01*
X105334400Y-130419067D01*
X105355406Y-130424949D01*
G37*
X112486137Y-130423463D02*
X112520291Y-130446776D01*
X112548000Y-130474485D01*
X112548000Y-130787537D01*
X112547959Y-130871567D01*
X112547701Y-130945789D01*
X112547030Y-131002541D01*
X112545752Y-131044512D01*
X112543673Y-131074389D01*
X112540599Y-131094861D01*
X112536334Y-131108614D01*
X112530684Y-131118337D01*
X112523455Y-131126717D01*
X112491991Y-131148181D01*
X112456826Y-131149947D01*
X112423822Y-131130267D01*
X112418516Y-131124398D01*
X112413066Y-131115314D01*
X112408900Y-131101973D01*
X112405846Y-131081757D01*
X112403732Y-131052049D01*
X112402386Y-131010232D01*
X112401638Y-130953689D01*
X112401314Y-130879802D01*
X112401245Y-130785956D01*
X112401284Y-130710294D01*
X112401539Y-130632385D01*
X112402183Y-130572375D01*
X112403387Y-130527648D01*
X112405324Y-130495585D01*
X112408164Y-130473571D01*
X112412079Y-130458987D01*
X112417242Y-130449218D01*
X112423822Y-130441645D01*
X112453006Y-130422623D01*
X112486137Y-130423463D01*
G36*
X112486137Y-130423463D02*
G01*
X112520291Y-130446776D01*
X112548000Y-130474485D01*
X112548000Y-130787537D01*
X112547959Y-130871567D01*
X112547701Y-130945789D01*
X112547030Y-131002541D01*
X112545752Y-131044512D01*
X112543673Y-131074389D01*
X112540599Y-131094861D01*
X112536334Y-131108614D01*
X112530684Y-131118337D01*
X112523455Y-131126717D01*
X112491991Y-131148181D01*
X112456826Y-131149947D01*
X112423822Y-131130267D01*
X112418516Y-131124398D01*
X112413066Y-131115314D01*
X112408900Y-131101973D01*
X112405846Y-131081757D01*
X112403732Y-131052049D01*
X112402386Y-131010232D01*
X112401638Y-130953689D01*
X112401314Y-130879802D01*
X112401245Y-130785956D01*
X112401284Y-130710294D01*
X112401539Y-130632385D01*
X112402183Y-130572375D01*
X112403387Y-130527648D01*
X112405324Y-130495585D01*
X112408164Y-130473571D01*
X112412079Y-130458987D01*
X112417242Y-130449218D01*
X112423822Y-130441645D01*
X112453006Y-130422623D01*
X112486137Y-130423463D01*
G37*
X111954562Y-125182850D02*
X112037313Y-125210053D01*
X112112406Y-125255484D01*
X112184298Y-125321302D01*
X112222846Y-125365567D01*
X112262256Y-125423961D01*
X112287446Y-125484586D01*
X112300861Y-125553865D01*
X112304948Y-125638222D01*
X112304669Y-125684307D01*
X112302460Y-125725450D01*
X112296894Y-125757582D01*
X112286586Y-125788122D01*
X112270148Y-125824489D01*
X112256200Y-125851728D01*
X112197665Y-125937429D01*
X112125619Y-126006617D01*
X112041947Y-126057741D01*
X111948531Y-126089250D01*
X111915434Y-126096225D01*
X111874960Y-126103094D01*
X111841999Y-126104919D01*
X111807698Y-126101947D01*
X111763200Y-126094426D01*
X111711934Y-126082002D01*
X111621434Y-126044112D01*
X111542345Y-125989836D01*
X111476528Y-125921770D01*
X111425840Y-125842511D01*
X111392140Y-125754654D01*
X111377286Y-125660795D01*
X111383136Y-125563530D01*
X111409399Y-125467220D01*
X111454418Y-125378494D01*
X111515373Y-125303419D01*
X111590184Y-125243641D01*
X111676768Y-125200809D01*
X111773043Y-125176571D01*
X111876928Y-125172576D01*
X111954562Y-125182850D01*
G36*
X111954562Y-125182850D02*
G01*
X112037313Y-125210053D01*
X112112406Y-125255484D01*
X112184298Y-125321302D01*
X112222846Y-125365567D01*
X112262256Y-125423961D01*
X112287446Y-125484586D01*
X112300861Y-125553865D01*
X112304948Y-125638222D01*
X112304669Y-125684307D01*
X112302460Y-125725450D01*
X112296894Y-125757582D01*
X112286586Y-125788122D01*
X112270148Y-125824489D01*
X112256200Y-125851728D01*
X112197665Y-125937429D01*
X112125619Y-126006617D01*
X112041947Y-126057741D01*
X111948531Y-126089250D01*
X111915434Y-126096225D01*
X111874960Y-126103094D01*
X111841999Y-126104919D01*
X111807698Y-126101947D01*
X111763200Y-126094426D01*
X111711934Y-126082002D01*
X111621434Y-126044112D01*
X111542345Y-125989836D01*
X111476528Y-125921770D01*
X111425840Y-125842511D01*
X111392140Y-125754654D01*
X111377286Y-125660795D01*
X111383136Y-125563530D01*
X111409399Y-125467220D01*
X111454418Y-125378494D01*
X111515373Y-125303419D01*
X111590184Y-125243641D01*
X111676768Y-125200809D01*
X111773043Y-125176571D01*
X111876928Y-125172576D01*
X111954562Y-125182850D01*
G37*
X104655767Y-130419068D02*
X104749890Y-130419158D01*
X104824405Y-130419498D01*
X104881811Y-130420239D01*
X104924611Y-130421535D01*
X104955304Y-130423537D01*
X104976391Y-130426396D01*
X104990373Y-130430266D01*
X104999750Y-130435298D01*
X105007022Y-130441645D01*
X105025828Y-130474362D01*
X105027275Y-130511939D01*
X105010917Y-130545178D01*
X105009557Y-130546631D01*
X104998354Y-130554992D01*
X104981252Y-130560547D01*
X104954082Y-130563840D01*
X104912678Y-130565418D01*
X104852873Y-130565822D01*
X104713511Y-130565822D01*
X104713511Y-130829589D01*
X104713436Y-130905417D01*
X104713028Y-130972083D01*
X104712046Y-131021867D01*
X104710250Y-131057784D01*
X104707399Y-131082850D01*
X104703253Y-131100081D01*
X104697571Y-131112492D01*
X104690114Y-131123100D01*
X104687824Y-131125906D01*
X104656646Y-131148548D01*
X104622266Y-131150112D01*
X104589334Y-131130267D01*
X104582355Y-131122191D01*
X104576883Y-131111593D01*
X104572863Y-131095749D01*
X104570072Y-131071773D01*
X104568288Y-131036774D01*
X104567289Y-130987864D01*
X104566852Y-130922154D01*
X104566756Y-130836756D01*
X104566756Y-130565822D01*
X104420820Y-130565822D01*
X104409720Y-130565821D01*
X104353202Y-130565596D01*
X104314358Y-130564457D01*
X104288965Y-130561657D01*
X104272804Y-130556450D01*
X104261652Y-130548089D01*
X104251289Y-130535826D01*
X104235441Y-130505138D01*
X104238543Y-130471358D01*
X104264187Y-130438822D01*
X104269129Y-130435105D01*
X104279338Y-130430269D01*
X104294764Y-130426506D01*
X104317886Y-130423683D01*
X104351183Y-130421670D01*
X104397137Y-130420333D01*
X104458228Y-130419542D01*
X104536935Y-130419163D01*
X104635740Y-130419067D01*
X104655767Y-130419068D01*
G36*
X104655767Y-130419068D02*
G01*
X104749890Y-130419158D01*
X104824405Y-130419498D01*
X104881811Y-130420239D01*
X104924611Y-130421535D01*
X104955304Y-130423537D01*
X104976391Y-130426396D01*
X104990373Y-130430266D01*
X104999750Y-130435298D01*
X105007022Y-130441645D01*
X105025828Y-130474362D01*
X105027275Y-130511939D01*
X105010917Y-130545178D01*
X105009557Y-130546631D01*
X104998354Y-130554992D01*
X104981252Y-130560547D01*
X104954082Y-130563840D01*
X104912678Y-130565418D01*
X104852873Y-130565822D01*
X104713511Y-130565822D01*
X104713511Y-130829589D01*
X104713436Y-130905417D01*
X104713028Y-130972083D01*
X104712046Y-131021867D01*
X104710250Y-131057784D01*
X104707399Y-131082850D01*
X104703253Y-131100081D01*
X104697571Y-131112492D01*
X104690114Y-131123100D01*
X104687824Y-131125906D01*
X104656646Y-131148548D01*
X104622266Y-131150112D01*
X104589334Y-131130267D01*
X104582355Y-131122191D01*
X104576883Y-131111593D01*
X104572863Y-131095749D01*
X104570072Y-131071773D01*
X104568288Y-131036774D01*
X104567289Y-130987864D01*
X104566852Y-130922154D01*
X104566756Y-130836756D01*
X104566756Y-130565822D01*
X104420820Y-130565822D01*
X104409720Y-130565821D01*
X104353202Y-130565596D01*
X104314358Y-130564457D01*
X104288965Y-130561657D01*
X104272804Y-130556450D01*
X104261652Y-130548089D01*
X104251289Y-130535826D01*
X104235441Y-130505138D01*
X104238543Y-130471358D01*
X104264187Y-130438822D01*
X104269129Y-130435105D01*
X104279338Y-130430269D01*
X104294764Y-130426506D01*
X104317886Y-130423683D01*
X104351183Y-130421670D01*
X104397137Y-130420333D01*
X104458228Y-130419542D01*
X104536935Y-130419163D01*
X104635740Y-130419067D01*
X104655767Y-130419068D01*
G37*
X103979734Y-130441645D02*
X103985366Y-130447835D01*
X103990456Y-130456041D01*
X103994543Y-130467817D01*
X103997721Y-130485276D01*
X104000087Y-130510530D01*
X104001738Y-130545690D01*
X104002769Y-130592869D01*
X104003277Y-130654177D01*
X104003359Y-130731727D01*
X104003109Y-130827631D01*
X104002625Y-130944000D01*
X104002557Y-130958175D01*
X104001971Y-131019937D01*
X104000648Y-131063620D01*
X103998103Y-131093001D01*
X103993848Y-131111855D01*
X103987396Y-131123959D01*
X103978262Y-131133089D01*
X103944804Y-131150506D01*
X103909856Y-131147604D01*
X103878953Y-131123100D01*
X103869944Y-131109897D01*
X103862492Y-131091361D01*
X103858124Y-131065333D01*
X103856069Y-131026787D01*
X103855556Y-130970700D01*
X103855556Y-130848045D01*
X103358845Y-130848045D01*
X103358845Y-130982871D01*
X103358772Y-131018662D01*
X103358009Y-131064992D01*
X103355833Y-131095526D01*
X103351536Y-131114557D01*
X103344412Y-131126374D01*
X103333755Y-131135271D01*
X103301504Y-131150341D01*
X103266217Y-131147673D01*
X103235486Y-131123100D01*
X103230831Y-131116845D01*
X103224895Y-131106321D01*
X103220364Y-131092391D01*
X103217048Y-131072317D01*
X103214759Y-131043360D01*
X103213308Y-131002780D01*
X103212505Y-130947840D01*
X103212162Y-130875799D01*
X103212089Y-130783920D01*
X103212089Y-130474485D01*
X103239798Y-130446776D01*
X103271177Y-130424533D01*
X103304406Y-130421844D01*
X103336267Y-130441645D01*
X103344553Y-130451415D01*
X103351965Y-130467307D01*
X103356302Y-130491275D01*
X103358338Y-130528148D01*
X103358845Y-130582756D01*
X103358845Y-130701289D01*
X103855556Y-130701289D01*
X103855556Y-130585776D01*
X103855994Y-130534078D01*
X103857958Y-130499554D01*
X103862474Y-130476978D01*
X103870567Y-130461126D01*
X103883265Y-130446776D01*
X103914643Y-130424533D01*
X103947872Y-130421844D01*
X103979734Y-130441645D01*
G36*
X103979734Y-130441645D02*
G01*
X103985366Y-130447835D01*
X103990456Y-130456041D01*
X103994543Y-130467817D01*
X103997721Y-130485276D01*
X104000087Y-130510530D01*
X104001738Y-130545690D01*
X104002769Y-130592869D01*
X104003277Y-130654177D01*
X104003359Y-130731727D01*
X104003109Y-130827631D01*
X104002625Y-130944000D01*
X104002557Y-130958175D01*
X104001971Y-131019937D01*
X104000648Y-131063620D01*
X103998103Y-131093001D01*
X103993848Y-131111855D01*
X103987396Y-131123959D01*
X103978262Y-131133089D01*
X103944804Y-131150506D01*
X103909856Y-131147604D01*
X103878953Y-131123100D01*
X103869944Y-131109897D01*
X103862492Y-131091361D01*
X103858124Y-131065333D01*
X103856069Y-131026787D01*
X103855556Y-130970700D01*
X103855556Y-130848045D01*
X103358845Y-130848045D01*
X103358845Y-130982871D01*
X103358772Y-131018662D01*
X103358009Y-131064992D01*
X103355833Y-131095526D01*
X103351536Y-131114557D01*
X103344412Y-131126374D01*
X103333755Y-131135271D01*
X103301504Y-131150341D01*
X103266217Y-131147673D01*
X103235486Y-131123100D01*
X103230831Y-131116845D01*
X103224895Y-131106321D01*
X103220364Y-131092391D01*
X103217048Y-131072317D01*
X103214759Y-131043360D01*
X103213308Y-131002780D01*
X103212505Y-130947840D01*
X103212162Y-130875799D01*
X103212089Y-130783920D01*
X103212089Y-130474485D01*
X103239798Y-130446776D01*
X103271177Y-130424533D01*
X103304406Y-130421844D01*
X103336267Y-130441645D01*
X103344553Y-130451415D01*
X103351965Y-130467307D01*
X103356302Y-130491275D01*
X103358338Y-130528148D01*
X103358845Y-130582756D01*
X103358845Y-130701289D01*
X103855556Y-130701289D01*
X103855556Y-130585776D01*
X103855994Y-130534078D01*
X103857958Y-130499554D01*
X103862474Y-130476978D01*
X103870567Y-130461126D01*
X103883265Y-130446776D01*
X103914643Y-130424533D01*
X103947872Y-130421844D01*
X103979734Y-130441645D01*
G37*
X108685133Y-131030396D02*
X108683163Y-131063175D01*
X108680235Y-131086095D01*
X108676158Y-131101897D01*
X108670743Y-131113319D01*
X108663803Y-131123100D01*
X108640406Y-131152845D01*
X108474714Y-131152251D01*
X108439918Y-131151953D01*
X108341435Y-131148522D01*
X108260473Y-131140839D01*
X108193379Y-131128282D01*
X108136496Y-131110227D01*
X108086169Y-131086052D01*
X108082810Y-131084135D01*
X108024998Y-131047417D01*
X107982644Y-131010451D01*
X107949828Y-130966966D01*
X107920628Y-130910689D01*
X107916346Y-130901073D01*
X107893769Y-130837887D01*
X107888034Y-130792333D01*
X108037279Y-130792333D01*
X108042892Y-130817061D01*
X108048618Y-130832939D01*
X108081548Y-130892847D01*
X108128886Y-130938600D01*
X108192652Y-130971736D01*
X108274861Y-130993790D01*
X108277655Y-130994292D01*
X108323940Y-131000255D01*
X108380336Y-131004483D01*
X108435274Y-131006089D01*
X108529156Y-131006089D01*
X108529156Y-130565822D01*
X108441667Y-130566270D01*
X108374747Y-130568746D01*
X108282349Y-130579998D01*
X108203034Y-130599537D01*
X108141060Y-130626511D01*
X108110120Y-130647240D01*
X108082000Y-130677006D01*
X108058660Y-130719434D01*
X108051533Y-130735400D01*
X108039709Y-130767902D01*
X108037279Y-130792333D01*
X107888034Y-130792333D01*
X107886797Y-130782509D01*
X107895399Y-130727483D01*
X107919541Y-130665351D01*
X107920337Y-130663658D01*
X107960788Y-130594236D01*
X108011473Y-130537638D01*
X108074198Y-130493070D01*
X108150774Y-130459741D01*
X108243009Y-130436861D01*
X108352712Y-130423636D01*
X108481691Y-130419275D01*
X108485263Y-130419270D01*
X108545283Y-130419410D01*
X108587214Y-130420446D01*
X108615328Y-130423040D01*
X108633897Y-130427853D01*
X108647194Y-130435544D01*
X108659491Y-130446776D01*
X108687200Y-130474485D01*
X108687200Y-130783920D01*
X108687175Y-130845526D01*
X108686950Y-130924311D01*
X108686332Y-130985021D01*
X108685775Y-131006089D01*
X108685133Y-131030396D01*
G36*
X108685133Y-131030396D02*
G01*
X108683163Y-131063175D01*
X108680235Y-131086095D01*
X108676158Y-131101897D01*
X108670743Y-131113319D01*
X108663803Y-131123100D01*
X108640406Y-131152845D01*
X108474714Y-131152251D01*
X108439918Y-131151953D01*
X108341435Y-131148522D01*
X108260473Y-131140839D01*
X108193379Y-131128282D01*
X108136496Y-131110227D01*
X108086169Y-131086052D01*
X108082810Y-131084135D01*
X108024998Y-131047417D01*
X107982644Y-131010451D01*
X107949828Y-130966966D01*
X107920628Y-130910689D01*
X107916346Y-130901073D01*
X107893769Y-130837887D01*
X107888034Y-130792333D01*
X108037279Y-130792333D01*
X108042892Y-130817061D01*
X108048618Y-130832939D01*
X108081548Y-130892847D01*
X108128886Y-130938600D01*
X108192652Y-130971736D01*
X108274861Y-130993790D01*
X108277655Y-130994292D01*
X108323940Y-131000255D01*
X108380336Y-131004483D01*
X108435274Y-131006089D01*
X108529156Y-131006089D01*
X108529156Y-130565822D01*
X108441667Y-130566270D01*
X108374747Y-130568746D01*
X108282349Y-130579998D01*
X108203034Y-130599537D01*
X108141060Y-130626511D01*
X108110120Y-130647240D01*
X108082000Y-130677006D01*
X108058660Y-130719434D01*
X108051533Y-130735400D01*
X108039709Y-130767902D01*
X108037279Y-130792333D01*
X107888034Y-130792333D01*
X107886797Y-130782509D01*
X107895399Y-130727483D01*
X107919541Y-130665351D01*
X107920337Y-130663658D01*
X107960788Y-130594236D01*
X108011473Y-130537638D01*
X108074198Y-130493070D01*
X108150774Y-130459741D01*
X108243009Y-130436861D01*
X108352712Y-130423636D01*
X108481691Y-130419275D01*
X108485263Y-130419270D01*
X108545283Y-130419410D01*
X108587214Y-130420446D01*
X108615328Y-130423040D01*
X108633897Y-130427853D01*
X108647194Y-130435544D01*
X108659491Y-130446776D01*
X108687200Y-130474485D01*
X108687200Y-130783920D01*
X108687175Y-130845526D01*
X108686950Y-130924311D01*
X108686332Y-130985021D01*
X108685775Y-131006089D01*
X108685133Y-131030396D01*
G37*
X115776817Y-130604427D02*
X115776870Y-130685041D01*
X115776622Y-130785956D01*
X115776583Y-130861617D01*
X115776328Y-130939526D01*
X115775684Y-130999536D01*
X115774480Y-131044264D01*
X115772543Y-131076326D01*
X115769703Y-131098340D01*
X115765788Y-131112924D01*
X115760626Y-131122694D01*
X115754045Y-131130267D01*
X115747077Y-131136501D01*
X115734079Y-131143801D01*
X115714931Y-131148554D01*
X115685528Y-131151292D01*
X115641762Y-131152545D01*
X115579528Y-131152845D01*
X115530582Y-131152469D01*
X115423722Y-131148041D01*
X115334494Y-131137953D01*
X115259696Y-131121365D01*
X115196125Y-131097435D01*
X115140579Y-131065321D01*
X115089854Y-131024182D01*
X115083866Y-131018330D01*
X115046999Y-130969821D01*
X115015899Y-130909013D01*
X114994417Y-130844769D01*
X114989136Y-130806026D01*
X115136353Y-130806026D01*
X115154635Y-130856961D01*
X115184305Y-130902878D01*
X115231002Y-130945287D01*
X115292392Y-130975090D01*
X115371538Y-130994226D01*
X115373028Y-130994464D01*
X115421999Y-131000256D01*
X115480693Y-131004396D01*
X115536734Y-131006004D01*
X115629867Y-131006089D01*
X115629867Y-130565822D01*
X115553667Y-130565808D01*
X115550639Y-130565817D01*
X115499519Y-130567782D01*
X115439416Y-130572507D01*
X115382708Y-130579035D01*
X115332750Y-130588331D01*
X115257998Y-130614600D01*
X115200489Y-130653899D01*
X115158988Y-130706933D01*
X115137771Y-130758200D01*
X115136353Y-130806026D01*
X114989136Y-130806026D01*
X114986400Y-130785956D01*
X114987679Y-130764739D01*
X114999991Y-130707323D01*
X115022520Y-130647413D01*
X115051750Y-130593363D01*
X115084167Y-130553532D01*
X115103708Y-130536510D01*
X115158420Y-130497322D01*
X115218723Y-130467193D01*
X115287919Y-130445232D01*
X115369311Y-130430550D01*
X115466200Y-130422259D01*
X115581889Y-130419467D01*
X115621371Y-130419066D01*
X115667082Y-130418653D01*
X115702883Y-130420457D01*
X115729974Y-130426739D01*
X115749556Y-130439759D01*
X115762830Y-130461778D01*
X115770998Y-130495055D01*
X115775260Y-130541851D01*
X115775857Y-130565822D01*
X115776817Y-130604427D01*
G36*
X115776817Y-130604427D02*
G01*
X115776870Y-130685041D01*
X115776622Y-130785956D01*
X115776583Y-130861617D01*
X115776328Y-130939526D01*
X115775684Y-130999536D01*
X115774480Y-131044264D01*
X115772543Y-131076326D01*
X115769703Y-131098340D01*
X115765788Y-131112924D01*
X115760626Y-131122694D01*
X115754045Y-131130267D01*
X115747077Y-131136501D01*
X115734079Y-131143801D01*
X115714931Y-131148554D01*
X115685528Y-131151292D01*
X115641762Y-131152545D01*
X115579528Y-131152845D01*
X115530582Y-131152469D01*
X115423722Y-131148041D01*
X115334494Y-131137953D01*
X115259696Y-131121365D01*
X115196125Y-131097435D01*
X115140579Y-131065321D01*
X115089854Y-131024182D01*
X115083866Y-131018330D01*
X115046999Y-130969821D01*
X115015899Y-130909013D01*
X114994417Y-130844769D01*
X114989136Y-130806026D01*
X115136353Y-130806026D01*
X115154635Y-130856961D01*
X115184305Y-130902878D01*
X115231002Y-130945287D01*
X115292392Y-130975090D01*
X115371538Y-130994226D01*
X115373028Y-130994464D01*
X115421999Y-131000256D01*
X115480693Y-131004396D01*
X115536734Y-131006004D01*
X115629867Y-131006089D01*
X115629867Y-130565822D01*
X115553667Y-130565808D01*
X115550639Y-130565817D01*
X115499519Y-130567782D01*
X115439416Y-130572507D01*
X115382708Y-130579035D01*
X115332750Y-130588331D01*
X115257998Y-130614600D01*
X115200489Y-130653899D01*
X115158988Y-130706933D01*
X115137771Y-130758200D01*
X115136353Y-130806026D01*
X114989136Y-130806026D01*
X114986400Y-130785956D01*
X114987679Y-130764739D01*
X114999991Y-130707323D01*
X115022520Y-130647413D01*
X115051750Y-130593363D01*
X115084167Y-130553532D01*
X115103708Y-130536510D01*
X115158420Y-130497322D01*
X115218723Y-130467193D01*
X115287919Y-130445232D01*
X115369311Y-130430550D01*
X115466200Y-130422259D01*
X115581889Y-130419467D01*
X115621371Y-130419066D01*
X115667082Y-130418653D01*
X115702883Y-130420457D01*
X115729974Y-130426739D01*
X115749556Y-130439759D01*
X115762830Y-130461778D01*
X115770998Y-130495055D01*
X115775260Y-130541851D01*
X115775857Y-130565822D01*
X115776817Y-130604427D01*
G37*
X110831893Y-130417892D02*
X110843301Y-130424029D01*
X110853850Y-130434691D01*
X110865136Y-130448811D01*
X110869589Y-130454772D01*
X110875588Y-130465268D01*
X110880167Y-130479093D01*
X110883519Y-130498998D01*
X110885833Y-130527732D01*
X110887301Y-130568045D01*
X110888113Y-130622687D01*
X110888460Y-130694407D01*
X110888534Y-130785956D01*
X110888511Y-130844486D01*
X110888292Y-130923573D01*
X110887683Y-130984516D01*
X110886492Y-131030062D01*
X110884529Y-131062963D01*
X110881603Y-131085968D01*
X110877523Y-131101826D01*
X110872097Y-131113286D01*
X110865136Y-131123100D01*
X110834708Y-131147493D01*
X110799765Y-131150372D01*
X110762784Y-131131282D01*
X110758600Y-131127807D01*
X110750424Y-131119279D01*
X110744364Y-131107728D01*
X110739981Y-131089896D01*
X110736839Y-131062524D01*
X110734502Y-131022354D01*
X110732531Y-130966128D01*
X110730489Y-130890589D01*
X110724845Y-130671458D01*
X110459556Y-130912099D01*
X110385722Y-130978875D01*
X110320542Y-131036991D01*
X110268348Y-131081949D01*
X110227273Y-131114871D01*
X110195455Y-131136879D01*
X110171026Y-131149094D01*
X110152124Y-131152639D01*
X110136883Y-131148636D01*
X110123439Y-131138207D01*
X110109927Y-131122474D01*
X110103682Y-131113991D01*
X110098050Y-131103413D01*
X110093839Y-131089255D01*
X110090887Y-131068803D01*
X110089032Y-131039342D01*
X110088113Y-130998161D01*
X110087968Y-130942544D01*
X110088435Y-130869779D01*
X110089352Y-130777151D01*
X110092667Y-130462199D01*
X110119318Y-130440633D01*
X110145383Y-130424441D01*
X110178241Y-130421670D01*
X110212772Y-130440623D01*
X110217084Y-130444208D01*
X110225216Y-130452737D01*
X110231245Y-130464329D01*
X110235606Y-130482235D01*
X110238734Y-130509706D01*
X110241063Y-130549994D01*
X110243029Y-130606351D01*
X110245067Y-130682029D01*
X110250711Y-130901878D01*
X110431334Y-130738084D01*
X110518072Y-130659451D01*
X110593843Y-130591058D01*
X110655980Y-130535708D01*
X110706078Y-130492338D01*
X110745735Y-130459881D01*
X110776548Y-130437273D01*
X110800114Y-130423448D01*
X110818030Y-130417343D01*
X110831893Y-130417892D01*
G36*
X110831893Y-130417892D02*
G01*
X110843301Y-130424029D01*
X110853850Y-130434691D01*
X110865136Y-130448811D01*
X110869589Y-130454772D01*
X110875588Y-130465268D01*
X110880167Y-130479093D01*
X110883519Y-130498998D01*
X110885833Y-130527732D01*
X110887301Y-130568045D01*
X110888113Y-130622687D01*
X110888460Y-130694407D01*
X110888534Y-130785956D01*
X110888511Y-130844486D01*
X110888292Y-130923573D01*
X110887683Y-130984516D01*
X110886492Y-131030062D01*
X110884529Y-131062963D01*
X110881603Y-131085968D01*
X110877523Y-131101826D01*
X110872097Y-131113286D01*
X110865136Y-131123100D01*
X110834708Y-131147493D01*
X110799765Y-131150372D01*
X110762784Y-131131282D01*
X110758600Y-131127807D01*
X110750424Y-131119279D01*
X110744364Y-131107728D01*
X110739981Y-131089896D01*
X110736839Y-131062524D01*
X110734502Y-131022354D01*
X110732531Y-130966128D01*
X110730489Y-130890589D01*
X110724845Y-130671458D01*
X110459556Y-130912099D01*
X110385722Y-130978875D01*
X110320542Y-131036991D01*
X110268348Y-131081949D01*
X110227273Y-131114871D01*
X110195455Y-131136879D01*
X110171026Y-131149094D01*
X110152124Y-131152639D01*
X110136883Y-131148636D01*
X110123439Y-131138207D01*
X110109927Y-131122474D01*
X110103682Y-131113991D01*
X110098050Y-131103413D01*
X110093839Y-131089255D01*
X110090887Y-131068803D01*
X110089032Y-131039342D01*
X110088113Y-130998161D01*
X110087968Y-130942544D01*
X110088435Y-130869779D01*
X110089352Y-130777151D01*
X110092667Y-130462199D01*
X110119318Y-130440633D01*
X110145383Y-130424441D01*
X110178241Y-130421670D01*
X110212772Y-130440623D01*
X110217084Y-130444208D01*
X110225216Y-130452737D01*
X110231245Y-130464329D01*
X110235606Y-130482235D01*
X110238734Y-130509706D01*
X110241063Y-130549994D01*
X110243029Y-130606351D01*
X110245067Y-130682029D01*
X110250711Y-130901878D01*
X110431334Y-130738084D01*
X110518072Y-130659451D01*
X110593843Y-130591058D01*
X110655980Y-130535708D01*
X110706078Y-130492338D01*
X110745735Y-130459881D01*
X110776548Y-130437273D01*
X110800114Y-130423448D01*
X110818030Y-130417343D01*
X110831893Y-130417892D01*
G37*
X111629150Y-130424179D02*
X111735157Y-130440494D01*
X111828969Y-130468545D01*
X111907765Y-130507452D01*
X111968719Y-130556334D01*
X111994789Y-130589195D01*
X112024297Y-130638394D01*
X112049568Y-130692252D01*
X112067218Y-130743419D01*
X112073858Y-130784544D01*
X112072298Y-130804259D01*
X112059357Y-130855592D01*
X112036194Y-130912118D01*
X112006302Y-130966035D01*
X111973173Y-131009539D01*
X111962977Y-131019887D01*
X111895892Y-131071662D01*
X111815766Y-131111554D01*
X111729556Y-131135956D01*
X111674592Y-131144068D01*
X111581139Y-131150673D01*
X111491358Y-131148586D01*
X111408869Y-131138340D01*
X111337286Y-131120470D01*
X111280228Y-131095508D01*
X111241311Y-131063988D01*
X111239936Y-131062012D01*
X111232848Y-131036786D01*
X111228609Y-130989535D01*
X111227200Y-130920071D01*
X111228060Y-130857838D01*
X111232780Y-130810456D01*
X111244470Y-130778353D01*
X111266239Y-130758800D01*
X111301198Y-130749070D01*
X111352456Y-130746433D01*
X111423123Y-130748161D01*
X111471743Y-130751173D01*
X111521939Y-130759366D01*
X111554433Y-130773419D01*
X111571892Y-130794654D01*
X111576983Y-130824394D01*
X111576877Y-130828936D01*
X111568175Y-130863730D01*
X111544165Y-130887147D01*
X111502900Y-130900347D01*
X111442431Y-130904489D01*
X111373956Y-130904489D01*
X111373956Y-130942841D01*
X111374006Y-130951976D01*
X111376227Y-130969227D01*
X111385494Y-130979521D01*
X111406875Y-130986459D01*
X111445436Y-130993641D01*
X111450910Y-130994575D01*
X111547860Y-131004478D01*
X111637852Y-131001559D01*
X111718760Y-130986829D01*
X111788459Y-130961299D01*
X111844824Y-130925978D01*
X111885729Y-130881879D01*
X111909051Y-130830012D01*
X111912663Y-130771388D01*
X111907145Y-130742494D01*
X111880461Y-130686604D01*
X111834273Y-130640945D01*
X111769291Y-130606108D01*
X111686229Y-130582690D01*
X111661555Y-130578241D01*
X111572226Y-130567742D01*
X111492419Y-130568971D01*
X111414326Y-130581906D01*
X111379183Y-130588696D01*
X111333745Y-130589713D01*
X111302430Y-130577182D01*
X111282277Y-130550395D01*
X111275893Y-130522148D01*
X111285379Y-130490924D01*
X111294708Y-130477499D01*
X111328943Y-130453967D01*
X111381565Y-130436095D01*
X111450081Y-130424599D01*
X111532000Y-130420192D01*
X111629150Y-130424179D01*
G36*
X111629150Y-130424179D02*
G01*
X111735157Y-130440494D01*
X111828969Y-130468545D01*
X111907765Y-130507452D01*
X111968719Y-130556334D01*
X111994789Y-130589195D01*
X112024297Y-130638394D01*
X112049568Y-130692252D01*
X112067218Y-130743419D01*
X112073858Y-130784544D01*
X112072298Y-130804259D01*
X112059357Y-130855592D01*
X112036194Y-130912118D01*
X112006302Y-130966035D01*
X111973173Y-131009539D01*
X111962977Y-131019887D01*
X111895892Y-131071662D01*
X111815766Y-131111554D01*
X111729556Y-131135956D01*
X111674592Y-131144068D01*
X111581139Y-131150673D01*
X111491358Y-131148586D01*
X111408869Y-131138340D01*
X111337286Y-131120470D01*
X111280228Y-131095508D01*
X111241311Y-131063988D01*
X111239936Y-131062012D01*
X111232848Y-131036786D01*
X111228609Y-130989535D01*
X111227200Y-130920071D01*
X111228060Y-130857838D01*
X111232780Y-130810456D01*
X111244470Y-130778353D01*
X111266239Y-130758800D01*
X111301198Y-130749070D01*
X111352456Y-130746433D01*
X111423123Y-130748161D01*
X111471743Y-130751173D01*
X111521939Y-130759366D01*
X111554433Y-130773419D01*
X111571892Y-130794654D01*
X111576983Y-130824394D01*
X111576877Y-130828936D01*
X111568175Y-130863730D01*
X111544165Y-130887147D01*
X111502900Y-130900347D01*
X111442431Y-130904489D01*
X111373956Y-130904489D01*
X111373956Y-130942841D01*
X111374006Y-130951976D01*
X111376227Y-130969227D01*
X111385494Y-130979521D01*
X111406875Y-130986459D01*
X111445436Y-130993641D01*
X111450910Y-130994575D01*
X111547860Y-131004478D01*
X111637852Y-131001559D01*
X111718760Y-130986829D01*
X111788459Y-130961299D01*
X111844824Y-130925978D01*
X111885729Y-130881879D01*
X111909051Y-130830012D01*
X111912663Y-130771388D01*
X111907145Y-130742494D01*
X111880461Y-130686604D01*
X111834273Y-130640945D01*
X111769291Y-130606108D01*
X111686229Y-130582690D01*
X111661555Y-130578241D01*
X111572226Y-130567742D01*
X111492419Y-130568971D01*
X111414326Y-130581906D01*
X111379183Y-130588696D01*
X111333745Y-130589713D01*
X111302430Y-130577182D01*
X111282277Y-130550395D01*
X111275893Y-130522148D01*
X111285379Y-130490924D01*
X111294708Y-130477499D01*
X111328943Y-130453967D01*
X111381565Y-130436095D01*
X111450081Y-130424599D01*
X111532000Y-130420192D01*
X111629150Y-130424179D01*
G37*
X109679803Y-130448811D02*
X109684752Y-130455495D01*
X109690596Y-130466066D01*
X109695057Y-130480153D01*
X109698321Y-130500478D01*
X109700574Y-130529765D01*
X109702002Y-130570737D01*
X109702792Y-130626117D01*
X109703129Y-130698628D01*
X109703200Y-130790994D01*
X109703171Y-130856911D01*
X109702939Y-130935228D01*
X109702319Y-130995496D01*
X109701126Y-131040393D01*
X109699179Y-131072602D01*
X109696294Y-131094800D01*
X109692288Y-131109669D01*
X109686979Y-131119889D01*
X109680183Y-131128138D01*
X109675668Y-131132795D01*
X109667438Y-131139282D01*
X109656078Y-131144194D01*
X109638810Y-131147749D01*
X109612855Y-131150167D01*
X109575436Y-131151667D01*
X109523773Y-131152467D01*
X109455089Y-131152787D01*
X109366606Y-131152845D01*
X109346931Y-131152838D01*
X109259906Y-131152572D01*
X109192254Y-131151806D01*
X109141299Y-131150392D01*
X109104367Y-131148180D01*
X109078783Y-131145022D01*
X109061871Y-131140769D01*
X109050957Y-131135271D01*
X109040464Y-131125285D01*
X109027203Y-131094168D01*
X109028386Y-131058280D01*
X109044550Y-131026733D01*
X109046739Y-131024457D01*
X109055427Y-131018189D01*
X109068769Y-131013523D01*
X109089752Y-131010227D01*
X109121363Y-131008068D01*
X109166590Y-131006814D01*
X109228420Y-131006231D01*
X109309839Y-131006089D01*
X109556445Y-131006089D01*
X109556445Y-130848045D01*
X109394006Y-130848045D01*
X109358338Y-130847964D01*
X109302568Y-130847167D01*
X109263430Y-130845162D01*
X109236976Y-130841521D01*
X109219259Y-130835812D01*
X109206329Y-130827607D01*
X109202686Y-130824423D01*
X109184278Y-130793448D01*
X109183644Y-130757112D01*
X109201183Y-130723493D01*
X109201245Y-130723424D01*
X109210916Y-130714798D01*
X109224209Y-130708742D01*
X109244917Y-130704811D01*
X109276828Y-130702556D01*
X109323734Y-130701531D01*
X109389424Y-130701289D01*
X109557571Y-130701289D01*
X109554186Y-130636378D01*
X109550800Y-130571467D01*
X109308723Y-130568414D01*
X109283707Y-130568086D01*
X109202087Y-130566606D01*
X109139768Y-130564222D01*
X109094154Y-130560227D01*
X109062652Y-130553913D01*
X109042667Y-130544574D01*
X109031604Y-130531503D01*
X109026869Y-130513992D01*
X109025867Y-130491335D01*
X109025873Y-130488970D01*
X109027027Y-130468939D01*
X109031824Y-130453146D01*
X109042632Y-130441090D01*
X109061817Y-130432267D01*
X109091745Y-130426175D01*
X109134783Y-130422311D01*
X109193299Y-130420174D01*
X109269657Y-130419260D01*
X109366226Y-130419067D01*
X109656406Y-130419067D01*
X109679803Y-130448811D01*
G36*
X109679803Y-130448811D02*
G01*
X109684752Y-130455495D01*
X109690596Y-130466066D01*
X109695057Y-130480153D01*
X109698321Y-130500478D01*
X109700574Y-130529765D01*
X109702002Y-130570737D01*
X109702792Y-130626117D01*
X109703129Y-130698628D01*
X109703200Y-130790994D01*
X109703171Y-130856911D01*
X109702939Y-130935228D01*
X109702319Y-130995496D01*
X109701126Y-131040393D01*
X109699179Y-131072602D01*
X109696294Y-131094800D01*
X109692288Y-131109669D01*
X109686979Y-131119889D01*
X109680183Y-131128138D01*
X109675668Y-131132795D01*
X109667438Y-131139282D01*
X109656078Y-131144194D01*
X109638810Y-131147749D01*
X109612855Y-131150167D01*
X109575436Y-131151667D01*
X109523773Y-131152467D01*
X109455089Y-131152787D01*
X109366606Y-131152845D01*
X109346931Y-131152838D01*
X109259906Y-131152572D01*
X109192254Y-131151806D01*
X109141299Y-131150392D01*
X109104367Y-131148180D01*
X109078783Y-131145022D01*
X109061871Y-131140769D01*
X109050957Y-131135271D01*
X109040464Y-131125285D01*
X109027203Y-131094168D01*
X109028386Y-131058280D01*
X109044550Y-131026733D01*
X109046739Y-131024457D01*
X109055427Y-131018189D01*
X109068769Y-131013523D01*
X109089752Y-131010227D01*
X109121363Y-131008068D01*
X109166590Y-131006814D01*
X109228420Y-131006231D01*
X109309839Y-131006089D01*
X109556445Y-131006089D01*
X109556445Y-130848045D01*
X109394006Y-130848045D01*
X109358338Y-130847964D01*
X109302568Y-130847167D01*
X109263430Y-130845162D01*
X109236976Y-130841521D01*
X109219259Y-130835812D01*
X109206329Y-130827607D01*
X109202686Y-130824423D01*
X109184278Y-130793448D01*
X109183644Y-130757112D01*
X109201183Y-130723493D01*
X109201245Y-130723424D01*
X109210916Y-130714798D01*
X109224209Y-130708742D01*
X109244917Y-130704811D01*
X109276828Y-130702556D01*
X109323734Y-130701531D01*
X109389424Y-130701289D01*
X109557571Y-130701289D01*
X109554186Y-130636378D01*
X109550800Y-130571467D01*
X109308723Y-130568414D01*
X109283707Y-130568086D01*
X109202087Y-130566606D01*
X109139768Y-130564222D01*
X109094154Y-130560227D01*
X109062652Y-130553913D01*
X109042667Y-130544574D01*
X109031604Y-130531503D01*
X109026869Y-130513992D01*
X109025867Y-130491335D01*
X109025873Y-130488970D01*
X109027027Y-130468939D01*
X109031824Y-130453146D01*
X109042632Y-130441090D01*
X109061817Y-130432267D01*
X109091745Y-130426175D01*
X109134783Y-130422311D01*
X109193299Y-130420174D01*
X109269657Y-130419260D01*
X109366226Y-130419067D01*
X109656406Y-130419067D01*
X109679803Y-130448811D01*
G37*
X114356734Y-130419083D02*
X114433831Y-130419275D01*
X114492777Y-130419860D01*
X114536364Y-130421051D01*
X114567383Y-130423064D01*
X114588625Y-130426112D01*
X114602882Y-130430409D01*
X114612945Y-130436172D01*
X114621606Y-130443612D01*
X114623391Y-130445293D01*
X114630635Y-130452832D01*
X114636277Y-130461850D01*
X114640517Y-130474984D01*
X114643556Y-130494872D01*
X114645594Y-130524151D01*
X114646830Y-130565458D01*
X114647465Y-130621431D01*
X114647700Y-130694707D01*
X114647734Y-130787923D01*
X114647697Y-130860713D01*
X114647448Y-130938889D01*
X114646812Y-130999103D01*
X114645615Y-131043982D01*
X114643684Y-131076152D01*
X114640846Y-131098239D01*
X114636927Y-131112870D01*
X114631755Y-131122670D01*
X114625156Y-131130267D01*
X114621822Y-131133444D01*
X114613300Y-131139554D01*
X114601298Y-131144229D01*
X114583087Y-131147659D01*
X114555940Y-131150036D01*
X114517129Y-131151552D01*
X114463924Y-131152398D01*
X114393598Y-131152765D01*
X114303422Y-131152845D01*
X114261314Y-131152833D01*
X114180167Y-131152651D01*
X114117675Y-131152098D01*
X114071109Y-131150982D01*
X114037741Y-131149113D01*
X114014844Y-131146298D01*
X113999688Y-131142346D01*
X113989546Y-131137066D01*
X113981689Y-131130267D01*
X113966963Y-131108667D01*
X113959111Y-131079467D01*
X113964610Y-131055560D01*
X113981689Y-131028667D01*
X113986668Y-131024059D01*
X113996443Y-131017772D01*
X114010559Y-131013146D01*
X114032054Y-131009930D01*
X114063968Y-131007870D01*
X114109342Y-131006712D01*
X114171213Y-131006202D01*
X114252622Y-131006089D01*
X114500978Y-131006089D01*
X114500978Y-130848045D01*
X114339801Y-130848045D01*
X114303983Y-130847899D01*
X114238359Y-130846176D01*
X114191118Y-130841741D01*
X114159383Y-130833637D01*
X114140277Y-130820906D01*
X114130923Y-130802592D01*
X114128445Y-130777738D01*
X114129242Y-130757482D01*
X114134494Y-130735656D01*
X114147288Y-130720304D01*
X114170628Y-130710309D01*
X114207517Y-130704553D01*
X114260959Y-130701919D01*
X114333958Y-130701289D01*
X114502105Y-130701289D01*
X114498719Y-130636378D01*
X114495334Y-130571467D01*
X114247617Y-130568418D01*
X114185026Y-130567539D01*
X114116565Y-130566095D01*
X114065661Y-130564164D01*
X114029408Y-130561514D01*
X114004901Y-130557910D01*
X113989235Y-130553121D01*
X113979506Y-130546913D01*
X113973491Y-130540510D01*
X113960482Y-130508828D01*
X113964043Y-130473142D01*
X113983818Y-130442084D01*
X113987069Y-130439161D01*
X113996049Y-130432810D01*
X114008153Y-130427957D01*
X114026159Y-130424403D01*
X114052847Y-130421946D01*
X114090997Y-130420385D01*
X114143386Y-130419518D01*
X114212794Y-130419146D01*
X114302001Y-130419067D01*
X114356734Y-130419083D01*
G36*
X114356734Y-130419083D02*
G01*
X114433831Y-130419275D01*
X114492777Y-130419860D01*
X114536364Y-130421051D01*
X114567383Y-130423064D01*
X114588625Y-130426112D01*
X114602882Y-130430409D01*
X114612945Y-130436172D01*
X114621606Y-130443612D01*
X114623391Y-130445293D01*
X114630635Y-130452832D01*
X114636277Y-130461850D01*
X114640517Y-130474984D01*
X114643556Y-130494872D01*
X114645594Y-130524151D01*
X114646830Y-130565458D01*
X114647465Y-130621431D01*
X114647700Y-130694707D01*
X114647734Y-130787923D01*
X114647697Y-130860713D01*
X114647448Y-130938889D01*
X114646812Y-130999103D01*
X114645615Y-131043982D01*
X114643684Y-131076152D01*
X114640846Y-131098239D01*
X114636927Y-131112870D01*
X114631755Y-131122670D01*
X114625156Y-131130267D01*
X114621822Y-131133444D01*
X114613300Y-131139554D01*
X114601298Y-131144229D01*
X114583087Y-131147659D01*
X114555940Y-131150036D01*
X114517129Y-131151552D01*
X114463924Y-131152398D01*
X114393598Y-131152765D01*
X114303422Y-131152845D01*
X114261314Y-131152833D01*
X114180167Y-131152651D01*
X114117675Y-131152098D01*
X114071109Y-131150982D01*
X114037741Y-131149113D01*
X114014844Y-131146298D01*
X113999688Y-131142346D01*
X113989546Y-131137066D01*
X113981689Y-131130267D01*
X113966963Y-131108667D01*
X113959111Y-131079467D01*
X113964610Y-131055560D01*
X113981689Y-131028667D01*
X113986668Y-131024059D01*
X113996443Y-131017772D01*
X114010559Y-131013146D01*
X114032054Y-131009930D01*
X114063968Y-131007870D01*
X114109342Y-131006712D01*
X114171213Y-131006202D01*
X114252622Y-131006089D01*
X114500978Y-131006089D01*
X114500978Y-130848045D01*
X114339801Y-130848045D01*
X114303983Y-130847899D01*
X114238359Y-130846176D01*
X114191118Y-130841741D01*
X114159383Y-130833637D01*
X114140277Y-130820906D01*
X114130923Y-130802592D01*
X114128445Y-130777738D01*
X114129242Y-130757482D01*
X114134494Y-130735656D01*
X114147288Y-130720304D01*
X114170628Y-130710309D01*
X114207517Y-130704553D01*
X114260959Y-130701919D01*
X114333958Y-130701289D01*
X114502105Y-130701289D01*
X114498719Y-130636378D01*
X114495334Y-130571467D01*
X114247617Y-130568418D01*
X114185026Y-130567539D01*
X114116565Y-130566095D01*
X114065661Y-130564164D01*
X114029408Y-130561514D01*
X114004901Y-130557910D01*
X113989235Y-130553121D01*
X113979506Y-130546913D01*
X113973491Y-130540510D01*
X113960482Y-130508828D01*
X113964043Y-130473142D01*
X113983818Y-130442084D01*
X113987069Y-130439161D01*
X113996049Y-130432810D01*
X114008153Y-130427957D01*
X114026159Y-130424403D01*
X114052847Y-130421946D01*
X114090997Y-130420385D01*
X114143386Y-130419518D01*
X114212794Y-130419146D01*
X114302001Y-130419067D01*
X114356734Y-130419083D01*
G37*
X105789702Y-130428478D02*
X105807663Y-130446989D01*
X105828263Y-130478071D01*
X105853095Y-130523756D01*
X105883750Y-130586078D01*
X105921820Y-130667071D01*
X105936454Y-130698454D01*
X105966203Y-130761638D01*
X105992297Y-130816244D01*
X106013292Y-130859290D01*
X106027739Y-130887793D01*
X106034191Y-130898770D01*
X106035550Y-130898189D01*
X106045542Y-130884242D01*
X106062833Y-130854704D01*
X106085430Y-130813087D01*
X106111338Y-130762903D01*
X106127311Y-130731414D01*
X106156261Y-130676061D01*
X106178749Y-130637044D01*
X106196965Y-130611566D01*
X106213096Y-130596831D01*
X106229330Y-130590042D01*
X106247857Y-130588400D01*
X106258360Y-130588875D01*
X106274476Y-130593082D01*
X106289790Y-130603946D01*
X106306388Y-130624219D01*
X106326357Y-130656654D01*
X106351783Y-130704004D01*
X106384752Y-130769022D01*
X106394485Y-130788277D01*
X106418943Y-130834946D01*
X106439178Y-130871109D01*
X106453311Y-130893497D01*
X106459460Y-130898845D01*
X106460827Y-130895573D01*
X106470202Y-130874664D01*
X106487062Y-130837725D01*
X106509979Y-130787874D01*
X106537520Y-130728226D01*
X106568255Y-130661898D01*
X106594970Y-130604677D01*
X106624593Y-130542688D01*
X106647664Y-130496949D01*
X106665643Y-130464908D01*
X106679990Y-130444014D01*
X106692166Y-130431718D01*
X106703632Y-130425466D01*
X106713042Y-130422574D01*
X106738147Y-130422425D01*
X106765290Y-130437768D01*
X106766590Y-130438753D01*
X106788674Y-130461388D01*
X106799723Y-130483613D01*
X106799769Y-130484253D01*
X106795228Y-130501915D01*
X106782364Y-130536481D01*
X106762605Y-130584826D01*
X106737381Y-130643825D01*
X106708119Y-130710355D01*
X106676250Y-130781291D01*
X106643201Y-130853507D01*
X106610401Y-130923880D01*
X106579280Y-130989285D01*
X106551265Y-131046597D01*
X106527786Y-131092692D01*
X106510272Y-131124446D01*
X106500151Y-131138733D01*
X106465743Y-131152102D01*
X106424046Y-131145741D01*
X106418681Y-131141044D01*
X106402852Y-131118893D01*
X106380650Y-131082132D01*
X106354233Y-131034415D01*
X106325760Y-130979393D01*
X106245986Y-130820150D01*
X106172799Y-130966742D01*
X106163103Y-130986032D01*
X106136125Y-131038380D01*
X106112096Y-131083170D01*
X106093332Y-131116154D01*
X106082146Y-131133089D01*
X106081000Y-131134332D01*
X106052879Y-131149619D01*
X106017817Y-131151302D01*
X105986776Y-131138733D01*
X105984350Y-131135884D01*
X105972090Y-131115259D01*
X105952352Y-131077708D01*
X105926448Y-131025880D01*
X105895685Y-130962423D01*
X105861375Y-130889985D01*
X105824825Y-130811216D01*
X105804585Y-130767093D01*
X105767812Y-130686365D01*
X105739355Y-130622687D01*
X105718331Y-130573752D01*
X105703854Y-130537257D01*
X105695039Y-130510895D01*
X105691004Y-130492361D01*
X105690862Y-130479352D01*
X105693730Y-130469561D01*
X105708387Y-130448678D01*
X105734990Y-130428377D01*
X105735745Y-130428035D01*
X105755335Y-130421034D01*
X105772790Y-130420504D01*
X105789702Y-130428478D01*
G36*
X105789702Y-130428478D02*
G01*
X105807663Y-130446989D01*
X105828263Y-130478071D01*
X105853095Y-130523756D01*
X105883750Y-130586078D01*
X105921820Y-130667071D01*
X105936454Y-130698454D01*
X105966203Y-130761638D01*
X105992297Y-130816244D01*
X106013292Y-130859290D01*
X106027739Y-130887793D01*
X106034191Y-130898770D01*
X106035550Y-130898189D01*
X106045542Y-130884242D01*
X106062833Y-130854704D01*
X106085430Y-130813087D01*
X106111338Y-130762903D01*
X106127311Y-130731414D01*
X106156261Y-130676061D01*
X106178749Y-130637044D01*
X106196965Y-130611566D01*
X106213096Y-130596831D01*
X106229330Y-130590042D01*
X106247857Y-130588400D01*
X106258360Y-130588875D01*
X106274476Y-130593082D01*
X106289790Y-130603946D01*
X106306388Y-130624219D01*
X106326357Y-130656654D01*
X106351783Y-130704004D01*
X106384752Y-130769022D01*
X106394485Y-130788277D01*
X106418943Y-130834946D01*
X106439178Y-130871109D01*
X106453311Y-130893497D01*
X106459460Y-130898845D01*
X106460827Y-130895573D01*
X106470202Y-130874664D01*
X106487062Y-130837725D01*
X106509979Y-130787874D01*
X106537520Y-130728226D01*
X106568255Y-130661898D01*
X106594970Y-130604677D01*
X106624593Y-130542688D01*
X106647664Y-130496949D01*
X106665643Y-130464908D01*
X106679990Y-130444014D01*
X106692166Y-130431718D01*
X106703632Y-130425466D01*
X106713042Y-130422574D01*
X106738147Y-130422425D01*
X106765290Y-130437768D01*
X106766590Y-130438753D01*
X106788674Y-130461388D01*
X106799723Y-130483613D01*
X106799769Y-130484253D01*
X106795228Y-130501915D01*
X106782364Y-130536481D01*
X106762605Y-130584826D01*
X106737381Y-130643825D01*
X106708119Y-130710355D01*
X106676250Y-130781291D01*
X106643201Y-130853507D01*
X106610401Y-130923880D01*
X106579280Y-130989285D01*
X106551265Y-131046597D01*
X106527786Y-131092692D01*
X106510272Y-131124446D01*
X106500151Y-131138733D01*
X106465743Y-131152102D01*
X106424046Y-131145741D01*
X106418681Y-131141044D01*
X106402852Y-131118893D01*
X106380650Y-131082132D01*
X106354233Y-131034415D01*
X106325760Y-130979393D01*
X106245986Y-130820150D01*
X106172799Y-130966742D01*
X106163103Y-130986032D01*
X106136125Y-131038380D01*
X106112096Y-131083170D01*
X106093332Y-131116154D01*
X106082146Y-131133089D01*
X106081000Y-131134332D01*
X106052879Y-131149619D01*
X106017817Y-131151302D01*
X105986776Y-131138733D01*
X105984350Y-131135884D01*
X105972090Y-131115259D01*
X105952352Y-131077708D01*
X105926448Y-131025880D01*
X105895685Y-130962423D01*
X105861375Y-130889985D01*
X105824825Y-130811216D01*
X105804585Y-130767093D01*
X105767812Y-130686365D01*
X105739355Y-130622687D01*
X105718331Y-130573752D01*
X105703854Y-130537257D01*
X105695039Y-130510895D01*
X105691004Y-130492361D01*
X105690862Y-130479352D01*
X105693730Y-130469561D01*
X105708387Y-130448678D01*
X105734990Y-130428377D01*
X105735745Y-130428035D01*
X105755335Y-130421034D01*
X105772790Y-130420504D01*
X105789702Y-130428478D01*
G37*
X113340853Y-130419936D02*
X113407100Y-130425366D01*
X113462400Y-130434964D01*
X113513283Y-130449825D01*
X113584595Y-130482958D01*
X113635752Y-130525640D01*
X113666575Y-130577705D01*
X113676889Y-130638983D01*
X113675952Y-130670232D01*
X113670160Y-130695029D01*
X113655353Y-130716699D01*
X113627380Y-130744049D01*
X113619402Y-130751378D01*
X113595692Y-130772281D01*
X113573298Y-130789251D01*
X113549265Y-130803205D01*
X113520637Y-130815056D01*
X113484460Y-130825720D01*
X113437780Y-130836111D01*
X113377641Y-130847146D01*
X113301090Y-130859738D01*
X113205171Y-130874804D01*
X113186808Y-130877838D01*
X113124478Y-130891458D01*
X113079260Y-130907192D01*
X113052976Y-130924263D01*
X113047447Y-130941897D01*
X113050068Y-130946168D01*
X113068000Y-130961233D01*
X113096126Y-130977867D01*
X113108926Y-130983857D01*
X113130224Y-130991050D01*
X113156610Y-130995827D01*
X113192454Y-130998646D01*
X113242128Y-130999964D01*
X113310000Y-131000237D01*
X113327785Y-131000164D01*
X113395406Y-130999053D01*
X113460345Y-130996828D01*
X113515970Y-130993762D01*
X113555651Y-130990127D01*
X113591162Y-130986059D01*
X113620415Y-130985276D01*
X113639315Y-130989876D01*
X113654429Y-131000551D01*
X113658085Y-131004144D01*
X113674427Y-131035918D01*
X113673107Y-131071572D01*
X113654150Y-131102190D01*
X113633780Y-131113796D01*
X113597796Y-131126491D01*
X113555372Y-131136541D01*
X113551922Y-131137140D01*
X113509252Y-131142356D01*
X113451866Y-131146730D01*
X113386849Y-131149818D01*
X113321289Y-131151177D01*
X113305057Y-131151218D01*
X113206744Y-131148741D01*
X113126692Y-131140735D01*
X113061513Y-131126203D01*
X113007817Y-131104149D01*
X112962216Y-131073576D01*
X112921323Y-131033486D01*
X112901202Y-131007259D01*
X112889576Y-130977712D01*
X112886667Y-130937995D01*
X112886808Y-130926026D01*
X112890681Y-130893345D01*
X112903065Y-130866819D01*
X112928230Y-130835971D01*
X112949442Y-130813831D01*
X112975838Y-130791285D01*
X113005555Y-130772917D01*
X113041785Y-130757661D01*
X113087717Y-130744449D01*
X113146544Y-130732214D01*
X113221456Y-130719889D01*
X113315645Y-130706406D01*
X113360957Y-130699396D01*
X113428911Y-130684837D01*
X113478047Y-130668337D01*
X113507614Y-130650439D01*
X113516864Y-130631685D01*
X113505048Y-130612615D01*
X113471416Y-130593771D01*
X113468370Y-130592557D01*
X113422011Y-130580479D01*
X113359361Y-130572279D01*
X113285927Y-130568119D01*
X113207217Y-130568161D01*
X113128739Y-130572569D01*
X113056000Y-130581505D01*
X113052073Y-130582154D01*
X113003257Y-130589861D01*
X112971005Y-130593473D01*
X112950008Y-130592876D01*
X112934954Y-130587954D01*
X112920534Y-130578596D01*
X112919364Y-130577725D01*
X112894847Y-130547351D01*
X112890054Y-130511850D01*
X112905860Y-130477269D01*
X112910406Y-130472813D01*
X112940020Y-130457673D01*
X112987002Y-130444550D01*
X113047306Y-130433750D01*
X113116888Y-130425581D01*
X113191703Y-130420351D01*
X113267706Y-130418367D01*
X113340853Y-130419936D01*
G36*
X113340853Y-130419936D02*
G01*
X113407100Y-130425366D01*
X113462400Y-130434964D01*
X113513283Y-130449825D01*
X113584595Y-130482958D01*
X113635752Y-130525640D01*
X113666575Y-130577705D01*
X113676889Y-130638983D01*
X113675952Y-130670232D01*
X113670160Y-130695029D01*
X113655353Y-130716699D01*
X113627380Y-130744049D01*
X113619402Y-130751378D01*
X113595692Y-130772281D01*
X113573298Y-130789251D01*
X113549265Y-130803205D01*
X113520637Y-130815056D01*
X113484460Y-130825720D01*
X113437780Y-130836111D01*
X113377641Y-130847146D01*
X113301090Y-130859738D01*
X113205171Y-130874804D01*
X113186808Y-130877838D01*
X113124478Y-130891458D01*
X113079260Y-130907192D01*
X113052976Y-130924263D01*
X113047447Y-130941897D01*
X113050068Y-130946168D01*
X113068000Y-130961233D01*
X113096126Y-130977867D01*
X113108926Y-130983857D01*
X113130224Y-130991050D01*
X113156610Y-130995827D01*
X113192454Y-130998646D01*
X113242128Y-130999964D01*
X113310000Y-131000237D01*
X113327785Y-131000164D01*
X113395406Y-130999053D01*
X113460345Y-130996828D01*
X113515970Y-130993762D01*
X113555651Y-130990127D01*
X113591162Y-130986059D01*
X113620415Y-130985276D01*
X113639315Y-130989876D01*
X113654429Y-131000551D01*
X113658085Y-131004144D01*
X113674427Y-131035918D01*
X113673107Y-131071572D01*
X113654150Y-131102190D01*
X113633780Y-131113796D01*
X113597796Y-131126491D01*
X113555372Y-131136541D01*
X113551922Y-131137140D01*
X113509252Y-131142356D01*
X113451866Y-131146730D01*
X113386849Y-131149818D01*
X113321289Y-131151177D01*
X113305057Y-131151218D01*
X113206744Y-131148741D01*
X113126692Y-131140735D01*
X113061513Y-131126203D01*
X113007817Y-131104149D01*
X112962216Y-131073576D01*
X112921323Y-131033486D01*
X112901202Y-131007259D01*
X112889576Y-130977712D01*
X112886667Y-130937995D01*
X112886808Y-130926026D01*
X112890681Y-130893345D01*
X112903065Y-130866819D01*
X112928230Y-130835971D01*
X112949442Y-130813831D01*
X112975838Y-130791285D01*
X113005555Y-130772917D01*
X113041785Y-130757661D01*
X113087717Y-130744449D01*
X113146544Y-130732214D01*
X113221456Y-130719889D01*
X113315645Y-130706406D01*
X113360957Y-130699396D01*
X113428911Y-130684837D01*
X113478047Y-130668337D01*
X113507614Y-130650439D01*
X113516864Y-130631685D01*
X113505048Y-130612615D01*
X113471416Y-130593771D01*
X113468370Y-130592557D01*
X113422011Y-130580479D01*
X113359361Y-130572279D01*
X113285927Y-130568119D01*
X113207217Y-130568161D01*
X113128739Y-130572569D01*
X113056000Y-130581505D01*
X113052073Y-130582154D01*
X113003257Y-130589861D01*
X112971005Y-130593473D01*
X112950008Y-130592876D01*
X112934954Y-130587954D01*
X112920534Y-130578596D01*
X112919364Y-130577725D01*
X112894847Y-130547351D01*
X112890054Y-130511850D01*
X112905860Y-130477269D01*
X112910406Y-130472813D01*
X112940020Y-130457673D01*
X112987002Y-130444550D01*
X113047306Y-130433750D01*
X113116888Y-130425581D01*
X113191703Y-130420351D01*
X113267706Y-130418367D01*
X113340853Y-130419936D01*
G37*
X109488711Y-126112033D02*
X109584268Y-126129523D01*
X109748558Y-126174564D01*
X109902589Y-126237656D01*
X110048509Y-126319915D01*
X110188466Y-126422457D01*
X110324608Y-126546399D01*
X110368473Y-126591661D01*
X110480758Y-126723865D01*
X110573972Y-126861832D01*
X110650719Y-127009750D01*
X110713603Y-127171803D01*
X110717420Y-127183391D01*
X110767507Y-127369392D01*
X110800899Y-127565521D01*
X110817584Y-127767568D01*
X110817551Y-127971325D01*
X110800791Y-128172581D01*
X110767292Y-128367128D01*
X110717044Y-128550756D01*
X110673190Y-128668053D01*
X110595348Y-128830951D01*
X110501828Y-128984866D01*
X110394822Y-129126671D01*
X110276519Y-129253239D01*
X110149111Y-129361441D01*
X110071606Y-129414120D01*
X109944725Y-129483750D01*
X109807243Y-129542468D01*
X109665716Y-129587587D01*
X109526702Y-129616422D01*
X109512597Y-129618106D01*
X109469153Y-129621434D01*
X109411723Y-129624275D01*
X109346122Y-129626373D01*
X109278167Y-129627468D01*
X109151378Y-129625140D01*
X109003673Y-129612136D01*
X108865779Y-129587133D01*
X108732014Y-129549318D01*
X108708562Y-129540889D01*
X108660612Y-129521408D01*
X108604140Y-129496473D01*
X108542379Y-129467722D01*
X108478563Y-129436790D01*
X108415926Y-129405315D01*
X108357703Y-129374934D01*
X108307127Y-129347283D01*
X108267433Y-129323999D01*
X108241854Y-129306718D01*
X108233625Y-129297079D01*
X108235076Y-129293984D01*
X108246250Y-129274079D01*
X108267134Y-129238420D01*
X108296265Y-129189459D01*
X108332181Y-129129646D01*
X108373420Y-129061433D01*
X108418517Y-128987271D01*
X108599785Y-128690008D01*
X108646315Y-128734539D01*
X108737723Y-128812865D01*
X108851334Y-128887439D01*
X108969122Y-128941474D01*
X109089559Y-128974290D01*
X109211117Y-128985211D01*
X109252585Y-128983868D01*
X109370080Y-128965612D01*
X109480089Y-128926617D01*
X109581430Y-128867670D01*
X109672921Y-128789557D01*
X109753380Y-128693064D01*
X109821627Y-128578978D01*
X109837908Y-128544724D01*
X109883982Y-128421240D01*
X109919106Y-128282918D01*
X109943197Y-128133561D01*
X109956173Y-127976973D01*
X109957949Y-127816956D01*
X109948443Y-127657314D01*
X109927572Y-127501850D01*
X109895252Y-127354366D01*
X109851399Y-127218667D01*
X109813982Y-127132076D01*
X109749185Y-127018688D01*
X109673772Y-126925070D01*
X109587418Y-126850959D01*
X109489795Y-126796094D01*
X109380577Y-126760212D01*
X109259439Y-126743051D01*
X109190038Y-126741880D01*
X109067168Y-126756141D01*
X108951664Y-126791241D01*
X108844953Y-126846682D01*
X108748464Y-126921964D01*
X108732720Y-126936440D01*
X108702150Y-126962962D01*
X108679809Y-126980138D01*
X108669691Y-126984787D01*
X108667706Y-126982597D01*
X108653241Y-126963721D01*
X108629400Y-126930397D01*
X108598029Y-126885380D01*
X108560974Y-126831425D01*
X108520083Y-126771285D01*
X108477202Y-126707718D01*
X108434178Y-126643476D01*
X108392857Y-126581315D01*
X108355086Y-126523991D01*
X108322712Y-126474257D01*
X108297582Y-126434868D01*
X108281542Y-126408580D01*
X108276439Y-126398147D01*
X108281050Y-126393941D01*
X108300267Y-126388933D01*
X108309838Y-126386386D01*
X108337809Y-126375249D01*
X108379448Y-126356802D01*
X108430995Y-126332725D01*
X108488690Y-126304699D01*
X108499957Y-126299154D01*
X108677687Y-126219889D01*
X108847490Y-126160385D01*
X109011430Y-126120245D01*
X109171571Y-126099071D01*
X109329977Y-126096466D01*
X109488711Y-126112033D01*
G36*
X109488711Y-126112033D02*
G01*
X109584268Y-126129523D01*
X109748558Y-126174564D01*
X109902589Y-126237656D01*
X110048509Y-126319915D01*
X110188466Y-126422457D01*
X110324608Y-126546399D01*
X110368473Y-126591661D01*
X110480758Y-126723865D01*
X110573972Y-126861832D01*
X110650719Y-127009750D01*
X110713603Y-127171803D01*
X110717420Y-127183391D01*
X110767507Y-127369392D01*
X110800899Y-127565521D01*
X110817584Y-127767568D01*
X110817551Y-127971325D01*
X110800791Y-128172581D01*
X110767292Y-128367128D01*
X110717044Y-128550756D01*
X110673190Y-128668053D01*
X110595348Y-128830951D01*
X110501828Y-128984866D01*
X110394822Y-129126671D01*
X110276519Y-129253239D01*
X110149111Y-129361441D01*
X110071606Y-129414120D01*
X109944725Y-129483750D01*
X109807243Y-129542468D01*
X109665716Y-129587587D01*
X109526702Y-129616422D01*
X109512597Y-129618106D01*
X109469153Y-129621434D01*
X109411723Y-129624275D01*
X109346122Y-129626373D01*
X109278167Y-129627468D01*
X109151378Y-129625140D01*
X109003673Y-129612136D01*
X108865779Y-129587133D01*
X108732014Y-129549318D01*
X108708562Y-129540889D01*
X108660612Y-129521408D01*
X108604140Y-129496473D01*
X108542379Y-129467722D01*
X108478563Y-129436790D01*
X108415926Y-129405315D01*
X108357703Y-129374934D01*
X108307127Y-129347283D01*
X108267433Y-129323999D01*
X108241854Y-129306718D01*
X108233625Y-129297079D01*
X108235076Y-129293984D01*
X108246250Y-129274079D01*
X108267134Y-129238420D01*
X108296265Y-129189459D01*
X108332181Y-129129646D01*
X108373420Y-129061433D01*
X108418517Y-128987271D01*
X108599785Y-128690008D01*
X108646315Y-128734539D01*
X108737723Y-128812865D01*
X108851334Y-128887439D01*
X108969122Y-128941474D01*
X109089559Y-128974290D01*
X109211117Y-128985211D01*
X109252585Y-128983868D01*
X109370080Y-128965612D01*
X109480089Y-128926617D01*
X109581430Y-128867670D01*
X109672921Y-128789557D01*
X109753380Y-128693064D01*
X109821627Y-128578978D01*
X109837908Y-128544724D01*
X109883982Y-128421240D01*
X109919106Y-128282918D01*
X109943197Y-128133561D01*
X109956173Y-127976973D01*
X109957949Y-127816956D01*
X109948443Y-127657314D01*
X109927572Y-127501850D01*
X109895252Y-127354366D01*
X109851399Y-127218667D01*
X109813982Y-127132076D01*
X109749185Y-127018688D01*
X109673772Y-126925070D01*
X109587418Y-126850959D01*
X109489795Y-126796094D01*
X109380577Y-126760212D01*
X109259439Y-126743051D01*
X109190038Y-126741880D01*
X109067168Y-126756141D01*
X108951664Y-126791241D01*
X108844953Y-126846682D01*
X108748464Y-126921964D01*
X108732720Y-126936440D01*
X108702150Y-126962962D01*
X108679809Y-126980138D01*
X108669691Y-126984787D01*
X108667706Y-126982597D01*
X108653241Y-126963721D01*
X108629400Y-126930397D01*
X108598029Y-126885380D01*
X108560974Y-126831425D01*
X108520083Y-126771285D01*
X108477202Y-126707718D01*
X108434178Y-126643476D01*
X108392857Y-126581315D01*
X108355086Y-126523991D01*
X108322712Y-126474257D01*
X108297582Y-126434868D01*
X108281542Y-126408580D01*
X108276439Y-126398147D01*
X108281050Y-126393941D01*
X108300267Y-126388933D01*
X108309838Y-126386386D01*
X108337809Y-126375249D01*
X108379448Y-126356802D01*
X108430995Y-126332725D01*
X108488690Y-126304699D01*
X108499957Y-126299154D01*
X108677687Y-126219889D01*
X108847490Y-126160385D01*
X109011430Y-126120245D01*
X109171571Y-126099071D01*
X109329977Y-126096466D01*
X109488711Y-126112033D01*
G37*
X105685994Y-128392711D02*
X105685268Y-128470158D01*
X105676689Y-128621594D01*
X105657833Y-128758283D01*
X105627837Y-128884276D01*
X105585836Y-129003625D01*
X105530969Y-129120381D01*
X105464167Y-129231179D01*
X105373363Y-129344739D01*
X105269708Y-129440211D01*
X105153887Y-129517073D01*
X105026586Y-129574797D01*
X104888489Y-129612858D01*
X104850793Y-129618666D01*
X104771752Y-129624396D01*
X104683629Y-129624583D01*
X104594236Y-129619539D01*
X104511384Y-129609578D01*
X104442887Y-129595012D01*
X104412035Y-129585364D01*
X104334730Y-129555123D01*
X104257679Y-129517617D01*
X104188200Y-129476614D01*
X104133615Y-129435879D01*
X104110916Y-129416505D01*
X104088201Y-129398662D01*
X104076779Y-129391778D01*
X104075537Y-129393424D01*
X104072728Y-129411205D01*
X104070776Y-129444370D01*
X104070045Y-129487733D01*
X104070045Y-129583689D01*
X103211896Y-129583689D01*
X103246161Y-129522974D01*
X103251355Y-129513868D01*
X103259715Y-129499249D01*
X103267288Y-129485173D01*
X103274112Y-129470540D01*
X103280227Y-129454249D01*
X103285673Y-129435198D01*
X103290487Y-129412286D01*
X103294708Y-129384413D01*
X103298377Y-129350478D01*
X103301531Y-129309379D01*
X103304211Y-129260015D01*
X103306454Y-129201286D01*
X103308299Y-129132090D01*
X103309787Y-129051326D01*
X103310955Y-128957894D01*
X103311844Y-128850692D01*
X103312491Y-128728620D01*
X103312936Y-128590576D01*
X103313218Y-128435459D01*
X103313375Y-128262168D01*
X103313448Y-128069603D01*
X103313474Y-127856662D01*
X103313485Y-127720530D01*
X104115200Y-127720530D01*
X104115200Y-128870721D01*
X104185756Y-128917089D01*
X104226417Y-128940791D01*
X104280546Y-128966639D01*
X104329689Y-128984829D01*
X104393165Y-129000551D01*
X104489331Y-129011541D01*
X104573900Y-129003365D01*
X104647219Y-128975805D01*
X104709637Y-128928642D01*
X104761502Y-128861658D01*
X104803160Y-128774633D01*
X104834962Y-128667350D01*
X104837545Y-128655009D01*
X104846000Y-128593772D01*
X104851663Y-128516692D01*
X104854576Y-128429002D01*
X104854783Y-128335934D01*
X104852330Y-128242720D01*
X104847261Y-128154594D01*
X104839619Y-128076788D01*
X104829448Y-128014533D01*
X104828167Y-128008666D01*
X104799126Y-127898121D01*
X104764610Y-127807575D01*
X104723456Y-127734953D01*
X104674499Y-127678181D01*
X104616574Y-127635184D01*
X104584620Y-127619615D01*
X104511784Y-127600722D01*
X104430443Y-127597465D01*
X104345319Y-127609389D01*
X104261133Y-127636040D01*
X104182608Y-127676962D01*
X104115200Y-127720530D01*
X103313485Y-127720530D01*
X103313493Y-127622245D01*
X103313689Y-125937378D01*
X104219017Y-125937378D01*
X104194585Y-125974067D01*
X104188318Y-125983647D01*
X104162208Y-126029981D01*
X104144469Y-126077102D01*
X104132908Y-126132251D01*
X104125331Y-126202667D01*
X104124839Y-126209650D01*
X104123062Y-126247641D01*
X104121444Y-126301576D01*
X104119999Y-126368703D01*
X104118740Y-126446271D01*
X104117680Y-126531528D01*
X104116829Y-126621724D01*
X104116203Y-126714107D01*
X104115812Y-126805925D01*
X104115670Y-126894427D01*
X104115790Y-126976862D01*
X104116183Y-127050479D01*
X104116862Y-127112526D01*
X104117841Y-127160251D01*
X104119132Y-127190904D01*
X104120747Y-127201733D01*
X104128957Y-127197333D01*
X104150647Y-127182362D01*
X104180014Y-127160448D01*
X104228879Y-127126236D01*
X104317125Y-127079714D01*
X104415916Y-127046046D01*
X104528510Y-127024231D01*
X104658164Y-127013265D01*
X104750670Y-127012219D01*
X104872011Y-127022014D01*
X104982099Y-127046174D01*
X105085389Y-127085785D01*
X105186338Y-127141932D01*
X105231503Y-127172883D01*
X105336911Y-127264115D01*
X105428538Y-127373106D01*
X105506332Y-127499726D01*
X105570241Y-127643845D01*
X105620214Y-127805332D01*
X105656198Y-127984059D01*
X105678143Y-128179895D01*
X105683900Y-128335934D01*
X105685994Y-128392711D01*
G36*
X105685994Y-128392711D02*
G01*
X105685268Y-128470158D01*
X105676689Y-128621594D01*
X105657833Y-128758283D01*
X105627837Y-128884276D01*
X105585836Y-129003625D01*
X105530969Y-129120381D01*
X105464167Y-129231179D01*
X105373363Y-129344739D01*
X105269708Y-129440211D01*
X105153887Y-129517073D01*
X105026586Y-129574797D01*
X104888489Y-129612858D01*
X104850793Y-129618666D01*
X104771752Y-129624396D01*
X104683629Y-129624583D01*
X104594236Y-129619539D01*
X104511384Y-129609578D01*
X104442887Y-129595012D01*
X104412035Y-129585364D01*
X104334730Y-129555123D01*
X104257679Y-129517617D01*
X104188200Y-129476614D01*
X104133615Y-129435879D01*
X104110916Y-129416505D01*
X104088201Y-129398662D01*
X104076779Y-129391778D01*
X104075537Y-129393424D01*
X104072728Y-129411205D01*
X104070776Y-129444370D01*
X104070045Y-129487733D01*
X104070045Y-129583689D01*
X103211896Y-129583689D01*
X103246161Y-129522974D01*
X103251355Y-129513868D01*
X103259715Y-129499249D01*
X103267288Y-129485173D01*
X103274112Y-129470540D01*
X103280227Y-129454249D01*
X103285673Y-129435198D01*
X103290487Y-129412286D01*
X103294708Y-129384413D01*
X103298377Y-129350478D01*
X103301531Y-129309379D01*
X103304211Y-129260015D01*
X103306454Y-129201286D01*
X103308299Y-129132090D01*
X103309787Y-129051326D01*
X103310955Y-128957894D01*
X103311844Y-128850692D01*
X103312491Y-128728620D01*
X103312936Y-128590576D01*
X103313218Y-128435459D01*
X103313375Y-128262168D01*
X103313448Y-128069603D01*
X103313474Y-127856662D01*
X103313485Y-127720530D01*
X104115200Y-127720530D01*
X104115200Y-128870721D01*
X104185756Y-128917089D01*
X104226417Y-128940791D01*
X104280546Y-128966639D01*
X104329689Y-128984829D01*
X104393165Y-129000551D01*
X104489331Y-129011541D01*
X104573900Y-129003365D01*
X104647219Y-128975805D01*
X104709637Y-128928642D01*
X104761502Y-128861658D01*
X104803160Y-128774633D01*
X104834962Y-128667350D01*
X104837545Y-128655009D01*
X104846000Y-128593772D01*
X104851663Y-128516692D01*
X104854576Y-128429002D01*
X104854783Y-128335934D01*
X104852330Y-128242720D01*
X104847261Y-128154594D01*
X104839619Y-128076788D01*
X104829448Y-128014533D01*
X104828167Y-128008666D01*
X104799126Y-127898121D01*
X104764610Y-127807575D01*
X104723456Y-127734953D01*
X104674499Y-127678181D01*
X104616574Y-127635184D01*
X104584620Y-127619615D01*
X104511784Y-127600722D01*
X104430443Y-127597465D01*
X104345319Y-127609389D01*
X104261133Y-127636040D01*
X104182608Y-127676962D01*
X104115200Y-127720530D01*
X103313485Y-127720530D01*
X103313493Y-127622245D01*
X103313689Y-125937378D01*
X104219017Y-125937378D01*
X104194585Y-125974067D01*
X104188318Y-125983647D01*
X104162208Y-126029981D01*
X104144469Y-126077102D01*
X104132908Y-126132251D01*
X104125331Y-126202667D01*
X104124839Y-126209650D01*
X104123062Y-126247641D01*
X104121444Y-126301576D01*
X104119999Y-126368703D01*
X104118740Y-126446271D01*
X104117680Y-126531528D01*
X104116829Y-126621724D01*
X104116203Y-126714107D01*
X104115812Y-126805925D01*
X104115670Y-126894427D01*
X104115790Y-126976862D01*
X104116183Y-127050479D01*
X104116862Y-127112526D01*
X104117841Y-127160251D01*
X104119132Y-127190904D01*
X104120747Y-127201733D01*
X104128957Y-127197333D01*
X104150647Y-127182362D01*
X104180014Y-127160448D01*
X104228879Y-127126236D01*
X104317125Y-127079714D01*
X104415916Y-127046046D01*
X104528510Y-127024231D01*
X104658164Y-127013265D01*
X104750670Y-127012219D01*
X104872011Y-127022014D01*
X104982099Y-127046174D01*
X105085389Y-127085785D01*
X105186338Y-127141932D01*
X105231503Y-127172883D01*
X105336911Y-127264115D01*
X105428538Y-127373106D01*
X105506332Y-127499726D01*
X105570241Y-127643845D01*
X105620214Y-127805332D01*
X105656198Y-127984059D01*
X105678143Y-128179895D01*
X105683900Y-128335934D01*
X105685994Y-128392711D01*
G37*
X108227755Y-128793467D02*
X108227261Y-128827363D01*
X108223632Y-128902202D01*
X108216022Y-128964401D01*
X108203688Y-129020984D01*
X108159313Y-129147076D01*
X108096400Y-129261679D01*
X108016238Y-129362568D01*
X107919740Y-129448924D01*
X107807822Y-129519932D01*
X107681397Y-129574776D01*
X107541378Y-129612638D01*
X107505149Y-129618351D01*
X107426155Y-129624313D01*
X107337841Y-129624646D01*
X107248075Y-129619659D01*
X107164722Y-129609666D01*
X107095651Y-129594978D01*
X107009187Y-129564749D01*
X106899286Y-129510057D01*
X106801956Y-129442543D01*
X106739867Y-129391556D01*
X106736605Y-129487622D01*
X106733343Y-129583689D01*
X106310450Y-129583689D01*
X106299543Y-129583686D01*
X106205056Y-129583380D01*
X106118331Y-129582616D01*
X106041837Y-129581451D01*
X105978043Y-129579942D01*
X105929418Y-129578147D01*
X105898433Y-129576121D01*
X105887556Y-129573922D01*
X105887578Y-129573463D01*
X105894614Y-129557910D01*
X105910434Y-129535071D01*
X105914734Y-129529638D01*
X105925777Y-129515606D01*
X105935311Y-129502186D01*
X105943461Y-129487722D01*
X105950352Y-129470556D01*
X105956111Y-129449034D01*
X105960862Y-129421498D01*
X105964731Y-129386292D01*
X105967844Y-129341760D01*
X105970325Y-129286246D01*
X105972300Y-129218093D01*
X105973894Y-129135645D01*
X105975234Y-129037246D01*
X105976444Y-128921239D01*
X105977649Y-128785968D01*
X105978595Y-128674586D01*
X106779378Y-128674586D01*
X106779378Y-128870462D01*
X106824048Y-128926973D01*
X106836785Y-128942212D01*
X106883604Y-128984844D01*
X106944255Y-129020672D01*
X106954897Y-129025850D01*
X106993676Y-129042745D01*
X107028692Y-129052909D01*
X107068722Y-129058325D01*
X107122541Y-129060978D01*
X107140648Y-129061383D01*
X107216011Y-129058540D01*
X107276743Y-129046620D01*
X107328452Y-129024037D01*
X107376746Y-128989211D01*
X107381803Y-128984798D01*
X107430272Y-128929160D01*
X107458459Y-128865333D01*
X107467752Y-128790282D01*
X107460520Y-128718693D01*
X107435796Y-128655645D01*
X107391249Y-128597758D01*
X107336319Y-128550808D01*
X107263894Y-128510961D01*
X107177340Y-128483263D01*
X107074670Y-128467096D01*
X106953894Y-128461842D01*
X106945007Y-128461857D01*
X106889660Y-128462655D01*
X106842736Y-128464488D01*
X106808953Y-128467111D01*
X106793028Y-128470274D01*
X106788943Y-128476741D01*
X106784572Y-128498875D01*
X106781604Y-128537988D01*
X106779914Y-128595939D01*
X106779378Y-128674586D01*
X105978595Y-128674586D01*
X105978975Y-128629778D01*
X105980228Y-128487012D01*
X105981651Y-128341942D01*
X105983176Y-128216027D01*
X105984933Y-128107436D01*
X105987051Y-128014334D01*
X105989660Y-127934891D01*
X105992890Y-127867273D01*
X105996869Y-127809649D01*
X106001728Y-127760185D01*
X106007597Y-127717050D01*
X106014604Y-127678410D01*
X106022880Y-127642434D01*
X106032554Y-127607289D01*
X106043756Y-127571142D01*
X106056616Y-127532161D01*
X106072090Y-127489091D01*
X106114994Y-127396871D01*
X106168735Y-127317099D01*
X106237576Y-127242965D01*
X106315185Y-127179405D01*
X106419761Y-127117725D01*
X106539244Y-127070202D01*
X106674508Y-127036567D01*
X106826426Y-127016552D01*
X106995872Y-127009889D01*
X107053890Y-127010287D01*
X107119398Y-127012335D01*
X107180693Y-127016704D01*
X107242097Y-127024035D01*
X107307932Y-127034969D01*
X107382520Y-127050147D01*
X107470184Y-127070209D01*
X107575245Y-127095797D01*
X107603806Y-127102820D01*
X107679054Y-127120776D01*
X107749388Y-127136820D01*
X107810567Y-127150028D01*
X107858354Y-127159474D01*
X107888511Y-127164231D01*
X107916783Y-127167910D01*
X107943060Y-127173187D01*
X107953059Y-127177942D01*
X107949952Y-127186781D01*
X107939194Y-127214072D01*
X107921864Y-127256906D01*
X107899126Y-127312425D01*
X107872147Y-127377772D01*
X107842090Y-127450089D01*
X107835493Y-127465879D01*
X107796907Y-127556484D01*
X107765768Y-127626217D01*
X107741917Y-127675405D01*
X107725198Y-127704374D01*
X107715454Y-127713452D01*
X107707766Y-127711405D01*
X107681415Y-127701760D01*
X107642982Y-127686190D01*
X107597822Y-127666815D01*
X107503293Y-127628814D01*
X107366480Y-127587780D01*
X107225289Y-127562612D01*
X107187314Y-127558611D01*
X107084059Y-127556447D01*
X106996952Y-127569622D01*
X106925129Y-127598756D01*
X106867731Y-127644466D01*
X106823896Y-127707372D01*
X106792762Y-127788092D01*
X106773470Y-127887245D01*
X106766050Y-127946224D01*
X106927936Y-127939445D01*
X107054495Y-127937813D01*
X107205951Y-127944194D01*
X107354396Y-127958777D01*
X107490578Y-127980882D01*
X107555245Y-127995821D01*
X107687490Y-128038741D01*
X107809762Y-128095340D01*
X107919685Y-128164017D01*
X108014883Y-128243170D01*
X108092980Y-128331196D01*
X108151599Y-128426493D01*
X108175595Y-128478864D01*
X108201232Y-128549590D01*
X108217478Y-128620812D01*
X108225822Y-128699712D01*
X108227690Y-128790282D01*
X108227755Y-128793467D01*
G36*
X108227755Y-128793467D02*
G01*
X108227261Y-128827363D01*
X108223632Y-128902202D01*
X108216022Y-128964401D01*
X108203688Y-129020984D01*
X108159313Y-129147076D01*
X108096400Y-129261679D01*
X108016238Y-129362568D01*
X107919740Y-129448924D01*
X107807822Y-129519932D01*
X107681397Y-129574776D01*
X107541378Y-129612638D01*
X107505149Y-129618351D01*
X107426155Y-129624313D01*
X107337841Y-129624646D01*
X107248075Y-129619659D01*
X107164722Y-129609666D01*
X107095651Y-129594978D01*
X107009187Y-129564749D01*
X106899286Y-129510057D01*
X106801956Y-129442543D01*
X106739867Y-129391556D01*
X106736605Y-129487622D01*
X106733343Y-129583689D01*
X106310450Y-129583689D01*
X106299543Y-129583686D01*
X106205056Y-129583380D01*
X106118331Y-129582616D01*
X106041837Y-129581451D01*
X105978043Y-129579942D01*
X105929418Y-129578147D01*
X105898433Y-129576121D01*
X105887556Y-129573922D01*
X105887578Y-129573463D01*
X105894614Y-129557910D01*
X105910434Y-129535071D01*
X105914734Y-129529638D01*
X105925777Y-129515606D01*
X105935311Y-129502186D01*
X105943461Y-129487722D01*
X105950352Y-129470556D01*
X105956111Y-129449034D01*
X105960862Y-129421498D01*
X105964731Y-129386292D01*
X105967844Y-129341760D01*
X105970325Y-129286246D01*
X105972300Y-129218093D01*
X105973894Y-129135645D01*
X105975234Y-129037246D01*
X105976444Y-128921239D01*
X105977649Y-128785968D01*
X105978595Y-128674586D01*
X106779378Y-128674586D01*
X106779378Y-128870462D01*
X106824048Y-128926973D01*
X106836785Y-128942212D01*
X106883604Y-128984844D01*
X106944255Y-129020672D01*
X106954897Y-129025850D01*
X106993676Y-129042745D01*
X107028692Y-129052909D01*
X107068722Y-129058325D01*
X107122541Y-129060978D01*
X107140648Y-129061383D01*
X107216011Y-129058540D01*
X107276743Y-129046620D01*
X107328452Y-129024037D01*
X107376746Y-128989211D01*
X107381803Y-128984798D01*
X107430272Y-128929160D01*
X107458459Y-128865333D01*
X107467752Y-128790282D01*
X107460520Y-128718693D01*
X107435796Y-128655645D01*
X107391249Y-128597758D01*
X107336319Y-128550808D01*
X107263894Y-128510961D01*
X107177340Y-128483263D01*
X107074670Y-128467096D01*
X106953894Y-128461842D01*
X106945007Y-128461857D01*
X106889660Y-128462655D01*
X106842736Y-128464488D01*
X106808953Y-128467111D01*
X106793028Y-128470274D01*
X106788943Y-128476741D01*
X106784572Y-128498875D01*
X106781604Y-128537988D01*
X106779914Y-128595939D01*
X106779378Y-128674586D01*
X105978595Y-128674586D01*
X105978975Y-128629778D01*
X105980228Y-128487012D01*
X105981651Y-128341942D01*
X105983176Y-128216027D01*
X105984933Y-128107436D01*
X105987051Y-128014334D01*
X105989660Y-127934891D01*
X105992890Y-127867273D01*
X105996869Y-127809649D01*
X106001728Y-127760185D01*
X106007597Y-127717050D01*
X106014604Y-127678410D01*
X106022880Y-127642434D01*
X106032554Y-127607289D01*
X106043756Y-127571142D01*
X106056616Y-127532161D01*
X106072090Y-127489091D01*
X106114994Y-127396871D01*
X106168735Y-127317099D01*
X106237576Y-127242965D01*
X106315185Y-127179405D01*
X106419761Y-127117725D01*
X106539244Y-127070202D01*
X106674508Y-127036567D01*
X106826426Y-127016552D01*
X106995872Y-127009889D01*
X107053890Y-127010287D01*
X107119398Y-127012335D01*
X107180693Y-127016704D01*
X107242097Y-127024035D01*
X107307932Y-127034969D01*
X107382520Y-127050147D01*
X107470184Y-127070209D01*
X107575245Y-127095797D01*
X107603806Y-127102820D01*
X107679054Y-127120776D01*
X107749388Y-127136820D01*
X107810567Y-127150028D01*
X107858354Y-127159474D01*
X107888511Y-127164231D01*
X107916783Y-127167910D01*
X107943060Y-127173187D01*
X107953059Y-127177942D01*
X107949952Y-127186781D01*
X107939194Y-127214072D01*
X107921864Y-127256906D01*
X107899126Y-127312425D01*
X107872147Y-127377772D01*
X107842090Y-127450089D01*
X107835493Y-127465879D01*
X107796907Y-127556484D01*
X107765768Y-127626217D01*
X107741917Y-127675405D01*
X107725198Y-127704374D01*
X107715454Y-127713452D01*
X107707766Y-127711405D01*
X107681415Y-127701760D01*
X107642982Y-127686190D01*
X107597822Y-127666815D01*
X107503293Y-127628814D01*
X107366480Y-127587780D01*
X107225289Y-127562612D01*
X107187314Y-127558611D01*
X107084059Y-127556447D01*
X106996952Y-127569622D01*
X106925129Y-127598756D01*
X106867731Y-127644466D01*
X106823896Y-127707372D01*
X106792762Y-127788092D01*
X106773470Y-127887245D01*
X106766050Y-127946224D01*
X106927936Y-127939445D01*
X107054495Y-127937813D01*
X107205951Y-127944194D01*
X107354396Y-127958777D01*
X107490578Y-127980882D01*
X107555245Y-127995821D01*
X107687490Y-128038741D01*
X107809762Y-128095340D01*
X107919685Y-128164017D01*
X108014883Y-128243170D01*
X108092980Y-128331196D01*
X108151599Y-128426493D01*
X108175595Y-128478864D01*
X108201232Y-128549590D01*
X108217478Y-128620812D01*
X108225822Y-128699712D01*
X108227690Y-128790282D01*
X108227755Y-128793467D01*
G37*
X115775614Y-126261792D02*
X115776059Y-126393011D01*
X115776362Y-126540216D01*
X115776548Y-126704349D01*
X115776642Y-126886352D01*
X115776671Y-127087165D01*
X115776661Y-127307732D01*
X115776636Y-127548992D01*
X115776622Y-127811889D01*
X115776622Y-127854040D01*
X115776646Y-128114668D01*
X115776685Y-128353796D01*
X115776708Y-128572360D01*
X115776687Y-128771295D01*
X115776593Y-128951535D01*
X115776395Y-129114015D01*
X115776063Y-129259670D01*
X115775569Y-129389434D01*
X115774883Y-129504243D01*
X115773976Y-129605030D01*
X115772817Y-129692730D01*
X115771378Y-129768279D01*
X115769629Y-129832611D01*
X115767540Y-129886661D01*
X115765083Y-129931363D01*
X115762227Y-129967652D01*
X115758943Y-129996463D01*
X115755202Y-130018731D01*
X115750974Y-130035390D01*
X115746229Y-130047375D01*
X115740939Y-130055621D01*
X115735073Y-130061062D01*
X115728602Y-130064634D01*
X115721497Y-130067270D01*
X115713728Y-130069906D01*
X115705266Y-130073477D01*
X115700908Y-130075145D01*
X115692395Y-130077111D01*
X115679694Y-130078911D01*
X115661885Y-130080555D01*
X115638049Y-130082047D01*
X115607266Y-130083397D01*
X115568617Y-130084611D01*
X115521182Y-130085697D01*
X115464043Y-130086661D01*
X115396279Y-130087511D01*
X115316971Y-130088253D01*
X115225199Y-130088897D01*
X115120044Y-130089447D01*
X115000587Y-130089913D01*
X114865908Y-130090300D01*
X114715088Y-130090616D01*
X114547206Y-130090869D01*
X114361345Y-130091066D01*
X114156583Y-130091213D01*
X113932002Y-130091318D01*
X113686682Y-130091389D01*
X113419704Y-130091432D01*
X113381321Y-130091437D01*
X113115922Y-130091480D01*
X112872050Y-130091525D01*
X112648783Y-130091548D01*
X112445196Y-130091524D01*
X112260367Y-130091430D01*
X112093373Y-130091243D01*
X111943290Y-130090939D01*
X111809196Y-130090494D01*
X111690166Y-130089885D01*
X111585279Y-130089089D01*
X111493610Y-130088080D01*
X111414237Y-130086837D01*
X111346237Y-130085335D01*
X111288686Y-130083551D01*
X111240662Y-130081461D01*
X111201240Y-130079042D01*
X111169499Y-130076270D01*
X111144514Y-130073121D01*
X111125364Y-130069572D01*
X111111123Y-130065598D01*
X111100871Y-130061178D01*
X111093682Y-130056286D01*
X111088635Y-130050900D01*
X111084805Y-130044996D01*
X111081271Y-130038549D01*
X111077108Y-130031537D01*
X111076025Y-130029687D01*
X111073813Y-130024180D01*
X111071786Y-130015868D01*
X111069938Y-130003809D01*
X111068261Y-129987063D01*
X111066745Y-129964687D01*
X111065383Y-129935740D01*
X111064167Y-129899280D01*
X111063089Y-129854367D01*
X111062140Y-129800057D01*
X111061312Y-129735410D01*
X111060597Y-129659484D01*
X111059987Y-129571338D01*
X111059942Y-129562493D01*
X111351378Y-129562493D01*
X111355260Y-129563765D01*
X111378520Y-129565791D01*
X111420874Y-129567626D01*
X111480132Y-129569227D01*
X111554107Y-129570549D01*
X111640610Y-129571548D01*
X111737452Y-129572180D01*
X111842445Y-129572400D01*
X112540651Y-129572400D01*
X113695090Y-129572400D01*
X113694456Y-129496200D01*
X113695574Y-129454160D01*
X113701304Y-129418334D01*
X113713890Y-129380772D01*
X113735568Y-129332577D01*
X113738789Y-129325897D01*
X113764188Y-129276359D01*
X113790996Y-129228369D01*
X113813917Y-129191466D01*
X113818485Y-129184834D01*
X113840516Y-129153593D01*
X113872693Y-129108654D01*
X113913457Y-129052147D01*
X113961245Y-128986204D01*
X114014498Y-128912957D01*
X114071655Y-128834536D01*
X114131155Y-128753072D01*
X114191437Y-128670698D01*
X114250940Y-128589544D01*
X114308105Y-128511742D01*
X114361370Y-128439423D01*
X114409174Y-128374718D01*
X114449957Y-128319759D01*
X114482158Y-128276676D01*
X114504216Y-128247602D01*
X114514571Y-128234667D01*
X114519044Y-128230351D01*
X114523236Y-128228312D01*
X114526643Y-128230926D01*
X114529325Y-128239986D01*
X114531341Y-128257285D01*
X114532748Y-128284614D01*
X114533605Y-128323765D01*
X114533970Y-128376533D01*
X114533903Y-128444707D01*
X114533460Y-128530082D01*
X114532702Y-128634449D01*
X114531685Y-128759600D01*
X114531308Y-128804300D01*
X114530169Y-128925395D01*
X114528972Y-129026688D01*
X114527636Y-129110262D01*
X114526077Y-129178204D01*
X114524215Y-129232599D01*
X114521966Y-129275532D01*
X114519248Y-129309089D01*
X114515979Y-129335355D01*
X114512078Y-129356416D01*
X114507461Y-129374357D01*
X114499192Y-129400770D01*
X114475583Y-129462772D01*
X114449685Y-129515573D01*
X114424535Y-129552645D01*
X114423339Y-129554075D01*
X114421168Y-129558424D01*
X114423328Y-129562026D01*
X114431644Y-129564951D01*
X114447940Y-129567269D01*
X114474041Y-129569051D01*
X114511771Y-129570367D01*
X114562956Y-129571286D01*
X114629420Y-129571878D01*
X114712987Y-129572215D01*
X114815483Y-129572365D01*
X114938732Y-129572400D01*
X115470296Y-129572400D01*
X115431523Y-129514783D01*
X115425432Y-129505893D01*
X115414976Y-129491069D01*
X115405579Y-129477422D01*
X115397183Y-129463765D01*
X115389733Y-129448911D01*
X115383173Y-129431670D01*
X115377446Y-129410855D01*
X115372495Y-129385280D01*
X115368266Y-129353755D01*
X115364701Y-129315093D01*
X115361744Y-129268107D01*
X115359340Y-129211608D01*
X115357431Y-129144409D01*
X115355962Y-129065322D01*
X115354876Y-128973160D01*
X115354118Y-128866734D01*
X115353630Y-128744857D01*
X115353358Y-128606341D01*
X115353243Y-128449999D01*
X115353231Y-128274642D01*
X115353265Y-128079082D01*
X115353289Y-127862133D01*
X115353280Y-127739513D01*
X115353243Y-127534447D01*
X115353227Y-127350116D01*
X115353288Y-127185334D01*
X115353484Y-127038916D01*
X115353870Y-126909674D01*
X115354505Y-126796422D01*
X115355444Y-126697975D01*
X115356745Y-126613144D01*
X115358464Y-126540744D01*
X115360659Y-126479589D01*
X115363385Y-126428492D01*
X115366701Y-126386267D01*
X115370662Y-126351727D01*
X115375325Y-126323686D01*
X115380747Y-126300958D01*
X115386986Y-126282356D01*
X115394097Y-126266693D01*
X115402138Y-126252784D01*
X115411166Y-126239441D01*
X115421236Y-126225479D01*
X115432407Y-126209711D01*
X115472197Y-126151867D01*
X114412314Y-126151867D01*
X114450311Y-126214966D01*
X114464993Y-126240005D01*
X114479531Y-126267586D01*
X114491627Y-126295700D01*
X114501532Y-126326551D01*
X114509494Y-126362344D01*
X114515761Y-126405283D01*
X114520582Y-126457574D01*
X114524206Y-126521419D01*
X114526881Y-126599025D01*
X114528857Y-126692594D01*
X114530382Y-126804333D01*
X114531704Y-126936445D01*
X114532613Y-127056434D01*
X114533020Y-127173063D01*
X114532767Y-127268531D01*
X114531857Y-127342556D01*
X114530293Y-127394855D01*
X114528079Y-127425149D01*
X114525220Y-127433156D01*
X114522161Y-127429858D01*
X114504006Y-127408408D01*
X114474275Y-127371889D01*
X114434639Y-127322442D01*
X114386771Y-127262207D01*
X114332343Y-127193327D01*
X114273027Y-127117943D01*
X114210495Y-127038196D01*
X114146421Y-126956228D01*
X114082475Y-126874180D01*
X114020331Y-126794194D01*
X113961661Y-126718411D01*
X113908137Y-126648973D01*
X113861430Y-126588021D01*
X113823214Y-126537696D01*
X113795161Y-126500140D01*
X113778943Y-126477495D01*
X113733635Y-126405212D01*
X113693661Y-126325463D01*
X113672130Y-126257188D01*
X113668827Y-126199844D01*
X113674116Y-126151867D01*
X112542356Y-126152117D01*
X112581867Y-126182722D01*
X112591248Y-126190089D01*
X112654183Y-126244438D01*
X112722997Y-126312259D01*
X112799596Y-126395516D01*
X112885888Y-126496178D01*
X112903052Y-126516847D01*
X112943833Y-126566409D01*
X112993588Y-126627326D01*
X113050955Y-126697898D01*
X113114569Y-126776424D01*
X113183069Y-126861204D01*
X113255090Y-126950537D01*
X113329270Y-127042722D01*
X113344517Y-127061702D01*
X113404246Y-127136060D01*
X113478653Y-127228848D01*
X113551131Y-127319388D01*
X113620314Y-127405978D01*
X113684841Y-127486918D01*
X113743347Y-127560506D01*
X113794470Y-127625044D01*
X113836847Y-127678829D01*
X113869115Y-127720162D01*
X113889910Y-127747342D01*
X113897869Y-127758668D01*
X113896111Y-127762771D01*
X113883230Y-127783334D01*
X113858885Y-127819561D01*
X113824247Y-127869824D01*
X113780486Y-127932492D01*
X113728775Y-128005936D01*
X113670284Y-128088527D01*
X113606184Y-128178636D01*
X113537646Y-128274631D01*
X113465843Y-128374885D01*
X113391944Y-128477768D01*
X113317121Y-128581650D01*
X113242545Y-128684901D01*
X113169387Y-128785892D01*
X113098819Y-128882994D01*
X113032011Y-128974577D01*
X112970135Y-129059011D01*
X112914361Y-129134667D01*
X112865862Y-129199916D01*
X112825807Y-129253128D01*
X112795369Y-129292673D01*
X112774944Y-129318026D01*
X112728899Y-129372295D01*
X112678612Y-129428775D01*
X112631815Y-129478669D01*
X112540651Y-129572400D01*
X111842445Y-129572400D01*
X111911356Y-129572349D01*
X112009607Y-129572091D01*
X112099030Y-129571637D01*
X112177333Y-129571010D01*
X112242223Y-129570235D01*
X112291411Y-129569335D01*
X112322604Y-129568334D01*
X112333511Y-129567257D01*
X112332322Y-129564037D01*
X112322176Y-129546452D01*
X112305040Y-129520158D01*
X112296540Y-129507691D01*
X112287329Y-129493622D01*
X112279233Y-129479351D01*
X112272185Y-129463479D01*
X112266117Y-129444609D01*
X112260961Y-129421341D01*
X112256651Y-129392278D01*
X112253119Y-129356021D01*
X112250297Y-129311170D01*
X112248118Y-129256328D01*
X112246514Y-129190097D01*
X112245419Y-129111077D01*
X112244765Y-129017871D01*
X112244484Y-128909079D01*
X112244509Y-128783303D01*
X112244772Y-128639145D01*
X112245206Y-128475207D01*
X112245745Y-128290089D01*
X112246279Y-128111232D01*
X112246805Y-127952374D01*
X112247350Y-127813316D01*
X112247945Y-127692665D01*
X112248619Y-127589028D01*
X112249403Y-127501011D01*
X112250326Y-127427223D01*
X112251419Y-127366269D01*
X112252712Y-127316757D01*
X112254235Y-127277293D01*
X112256019Y-127246484D01*
X112258092Y-127222938D01*
X112260486Y-127205260D01*
X112263230Y-127192059D01*
X112266356Y-127181940D01*
X112269892Y-127173511D01*
X112273791Y-127165375D01*
X112293438Y-127128544D01*
X112312225Y-127098391D01*
X112313272Y-127096908D01*
X112327602Y-127074659D01*
X112333511Y-127061702D01*
X112332504Y-127061249D01*
X112315305Y-127059803D01*
X112278656Y-127058480D01*
X112224962Y-127057316D01*
X112156630Y-127056347D01*
X112076064Y-127055611D01*
X111985670Y-127055142D01*
X111887853Y-127054978D01*
X111442195Y-127054978D01*
X111439120Y-128231845D01*
X111436045Y-129408711D01*
X111409407Y-129467622D01*
X111397485Y-129492183D01*
X111380246Y-129522434D01*
X111367074Y-129539560D01*
X111359076Y-129547591D01*
X111351378Y-129562493D01*
X111059942Y-129562493D01*
X111059474Y-129470029D01*
X111059050Y-129354617D01*
X111058706Y-129224160D01*
X111058434Y-129077716D01*
X111058227Y-128914344D01*
X111058076Y-128733101D01*
X111057972Y-128533048D01*
X111057908Y-128313241D01*
X111057876Y-128072739D01*
X111057867Y-127810602D01*
X111057867Y-125619031D01*
X111096249Y-125580649D01*
X111123355Y-125556911D01*
X111150253Y-125545111D01*
X111186560Y-125542267D01*
X111238489Y-125542267D01*
X111238489Y-125630206D01*
X111240427Y-125680102D01*
X111259199Y-125790523D01*
X111296217Y-125891987D01*
X111349369Y-125983152D01*
X111416546Y-126062673D01*
X111495638Y-126129205D01*
X111584534Y-126181406D01*
X111681125Y-126217930D01*
X111783300Y-126237434D01*
X111888950Y-126238573D01*
X111995964Y-126220005D01*
X112102232Y-126180384D01*
X112199219Y-126122516D01*
X112284293Y-126047684D01*
X112353015Y-125959615D01*
X112403918Y-125860616D01*
X112435535Y-125752993D01*
X112446400Y-125639054D01*
X112446400Y-125542267D01*
X114066753Y-125542267D01*
X114277897Y-125542280D01*
X114482020Y-125542330D01*
X114665686Y-125542430D01*
X114829991Y-125542592D01*
X114976029Y-125542829D01*
X115104894Y-125543153D01*
X115217683Y-125543575D01*
X115315488Y-125544109D01*
X115399404Y-125544767D01*
X115470527Y-125545561D01*
X115529950Y-125546504D01*
X115578768Y-125547608D01*
X115618077Y-125548884D01*
X115648969Y-125550347D01*
X115672541Y-125552007D01*
X115689886Y-125553878D01*
X115702099Y-125555972D01*
X115710275Y-125558300D01*
X115715508Y-125560876D01*
X115721504Y-125564445D01*
X115728279Y-125567978D01*
X115734478Y-125571488D01*
X115740126Y-125575918D01*
X115745247Y-125582208D01*
X115749869Y-125591301D01*
X115754015Y-125604139D01*
X115757713Y-125621662D01*
X115760987Y-125644813D01*
X115763863Y-125674534D01*
X115766367Y-125711765D01*
X115768524Y-125757449D01*
X115770360Y-125812527D01*
X115771900Y-125877941D01*
X115773170Y-125954633D01*
X115774195Y-126043544D01*
X115775001Y-126145617D01*
X115775034Y-126151867D01*
X115775614Y-126261792D01*
G36*
X115775614Y-126261792D02*
G01*
X115776059Y-126393011D01*
X115776362Y-126540216D01*
X115776548Y-126704349D01*
X115776642Y-126886352D01*
X115776671Y-127087165D01*
X115776661Y-127307732D01*
X115776636Y-127548992D01*
X115776622Y-127811889D01*
X115776622Y-127854040D01*
X115776646Y-128114668D01*
X115776685Y-128353796D01*
X115776708Y-128572360D01*
X115776687Y-128771295D01*
X115776593Y-128951535D01*
X115776395Y-129114015D01*
X115776063Y-129259670D01*
X115775569Y-129389434D01*
X115774883Y-129504243D01*
X115773976Y-129605030D01*
X115772817Y-129692730D01*
X115771378Y-129768279D01*
X115769629Y-129832611D01*
X115767540Y-129886661D01*
X115765083Y-129931363D01*
X115762227Y-129967652D01*
X115758943Y-129996463D01*
X115755202Y-130018731D01*
X115750974Y-130035390D01*
X115746229Y-130047375D01*
X115740939Y-130055621D01*
X115735073Y-130061062D01*
X115728602Y-130064634D01*
X115721497Y-130067270D01*
X115713728Y-130069906D01*
X115705266Y-130073477D01*
X115700908Y-130075145D01*
X115692395Y-130077111D01*
X115679694Y-130078911D01*
X115661885Y-130080555D01*
X115638049Y-130082047D01*
X115607266Y-130083397D01*
X115568617Y-130084611D01*
X115521182Y-130085697D01*
X115464043Y-130086661D01*
X115396279Y-130087511D01*
X115316971Y-130088253D01*
X115225199Y-130088897D01*
X115120044Y-130089447D01*
X115000587Y-130089913D01*
X114865908Y-130090300D01*
X114715088Y-130090616D01*
X114547206Y-130090869D01*
X114361345Y-130091066D01*
X114156583Y-130091213D01*
X113932002Y-130091318D01*
X113686682Y-130091389D01*
X113419704Y-130091432D01*
X113381321Y-130091437D01*
X113115922Y-130091480D01*
X112872050Y-130091525D01*
X112648783Y-130091548D01*
X112445196Y-130091524D01*
X112260367Y-130091430D01*
X112093373Y-130091243D01*
X111943290Y-130090939D01*
X111809196Y-130090494D01*
X111690166Y-130089885D01*
X111585279Y-130089089D01*
X111493610Y-130088080D01*
X111414237Y-130086837D01*
X111346237Y-130085335D01*
X111288686Y-130083551D01*
X111240662Y-130081461D01*
X111201240Y-130079042D01*
X111169499Y-130076270D01*
X111144514Y-130073121D01*
X111125364Y-130069572D01*
X111111123Y-130065598D01*
X111100871Y-130061178D01*
X111093682Y-130056286D01*
X111088635Y-130050900D01*
X111084805Y-130044996D01*
X111081271Y-130038549D01*
X111077108Y-130031537D01*
X111076025Y-130029687D01*
X111073813Y-130024180D01*
X111071786Y-130015868D01*
X111069938Y-130003809D01*
X111068261Y-129987063D01*
X111066745Y-129964687D01*
X111065383Y-129935740D01*
X111064167Y-129899280D01*
X111063089Y-129854367D01*
X111062140Y-129800057D01*
X111061312Y-129735410D01*
X111060597Y-129659484D01*
X111059987Y-129571338D01*
X111059942Y-129562493D01*
X111351378Y-129562493D01*
X111355260Y-129563765D01*
X111378520Y-129565791D01*
X111420874Y-129567626D01*
X111480132Y-129569227D01*
X111554107Y-129570549D01*
X111640610Y-129571548D01*
X111737452Y-129572180D01*
X111842445Y-129572400D01*
X112540651Y-129572400D01*
X113695090Y-129572400D01*
X113694456Y-129496200D01*
X113695574Y-129454160D01*
X113701304Y-129418334D01*
X113713890Y-129380772D01*
X113735568Y-129332577D01*
X113738789Y-129325897D01*
X113764188Y-129276359D01*
X113790996Y-129228369D01*
X113813917Y-129191466D01*
X113818485Y-129184834D01*
X113840516Y-129153593D01*
X113872693Y-129108654D01*
X113913457Y-129052147D01*
X113961245Y-128986204D01*
X114014498Y-128912957D01*
X114071655Y-128834536D01*
X114131155Y-128753072D01*
X114191437Y-128670698D01*
X114250940Y-128589544D01*
X114308105Y-128511742D01*
X114361370Y-128439423D01*
X114409174Y-128374718D01*
X114449957Y-128319759D01*
X114482158Y-128276676D01*
X114504216Y-128247602D01*
X114514571Y-128234667D01*
X114519044Y-128230351D01*
X114523236Y-128228312D01*
X114526643Y-128230926D01*
X114529325Y-128239986D01*
X114531341Y-128257285D01*
X114532748Y-128284614D01*
X114533605Y-128323765D01*
X114533970Y-128376533D01*
X114533903Y-128444707D01*
X114533460Y-128530082D01*
X114532702Y-128634449D01*
X114531685Y-128759600D01*
X114531308Y-128804300D01*
X114530169Y-128925395D01*
X114528972Y-129026688D01*
X114527636Y-129110262D01*
X114526077Y-129178204D01*
X114524215Y-129232599D01*
X114521966Y-129275532D01*
X114519248Y-129309089D01*
X114515979Y-129335355D01*
X114512078Y-129356416D01*
X114507461Y-129374357D01*
X114499192Y-129400770D01*
X114475583Y-129462772D01*
X114449685Y-129515573D01*
X114424535Y-129552645D01*
X114423339Y-129554075D01*
X114421168Y-129558424D01*
X114423328Y-129562026D01*
X114431644Y-129564951D01*
X114447940Y-129567269D01*
X114474041Y-129569051D01*
X114511771Y-129570367D01*
X114562956Y-129571286D01*
X114629420Y-129571878D01*
X114712987Y-129572215D01*
X114815483Y-129572365D01*
X114938732Y-129572400D01*
X115470296Y-129572400D01*
X115431523Y-129514783D01*
X115425432Y-129505893D01*
X115414976Y-129491069D01*
X115405579Y-129477422D01*
X115397183Y-129463765D01*
X115389733Y-129448911D01*
X115383173Y-129431670D01*
X115377446Y-129410855D01*
X115372495Y-129385280D01*
X115368266Y-129353755D01*
X115364701Y-129315093D01*
X115361744Y-129268107D01*
X115359340Y-129211608D01*
X115357431Y-129144409D01*
X115355962Y-129065322D01*
X115354876Y-128973160D01*
X115354118Y-128866734D01*
X115353630Y-128744857D01*
X115353358Y-128606341D01*
X115353243Y-128449999D01*
X115353231Y-128274642D01*
X115353265Y-128079082D01*
X115353289Y-127862133D01*
X115353280Y-127739513D01*
X115353243Y-127534447D01*
X115353227Y-127350116D01*
X115353288Y-127185334D01*
X115353484Y-127038916D01*
X115353870Y-126909674D01*
X115354505Y-126796422D01*
X115355444Y-126697975D01*
X115356745Y-126613144D01*
X115358464Y-126540744D01*
X115360659Y-126479589D01*
X115363385Y-126428492D01*
X115366701Y-126386267D01*
X115370662Y-126351727D01*
X115375325Y-126323686D01*
X115380747Y-126300958D01*
X115386986Y-126282356D01*
X115394097Y-126266693D01*
X115402138Y-126252784D01*
X115411166Y-126239441D01*
X115421236Y-126225479D01*
X115432407Y-126209711D01*
X115472197Y-126151867D01*
X114412314Y-126151867D01*
X114450311Y-126214966D01*
X114464993Y-126240005D01*
X114479531Y-126267586D01*
X114491627Y-126295700D01*
X114501532Y-126326551D01*
X114509494Y-126362344D01*
X114515761Y-126405283D01*
X114520582Y-126457574D01*
X114524206Y-126521419D01*
X114526881Y-126599025D01*
X114528857Y-126692594D01*
X114530382Y-126804333D01*
X114531704Y-126936445D01*
X114532613Y-127056434D01*
X114533020Y-127173063D01*
X114532767Y-127268531D01*
X114531857Y-127342556D01*
X114530293Y-127394855D01*
X114528079Y-127425149D01*
X114525220Y-127433156D01*
X114522161Y-127429858D01*
X114504006Y-127408408D01*
X114474275Y-127371889D01*
X114434639Y-127322442D01*
X114386771Y-127262207D01*
X114332343Y-127193327D01*
X114273027Y-127117943D01*
X114210495Y-127038196D01*
X114146421Y-126956228D01*
X114082475Y-126874180D01*
X114020331Y-126794194D01*
X113961661Y-126718411D01*
X113908137Y-126648973D01*
X113861430Y-126588021D01*
X113823214Y-126537696D01*
X113795161Y-126500140D01*
X113778943Y-126477495D01*
X113733635Y-126405212D01*
X113693661Y-126325463D01*
X113672130Y-126257188D01*
X113668827Y-126199844D01*
X113674116Y-126151867D01*
X112542356Y-126152117D01*
X112581867Y-126182722D01*
X112591248Y-126190089D01*
X112654183Y-126244438D01*
X112722997Y-126312259D01*
X112799596Y-126395516D01*
X112885888Y-126496178D01*
X112903052Y-126516847D01*
X112943833Y-126566409D01*
X112993588Y-126627326D01*
X113050955Y-126697898D01*
X113114569Y-126776424D01*
X113183069Y-126861204D01*
X113255090Y-126950537D01*
X113329270Y-127042722D01*
X113344517Y-127061702D01*
X113404246Y-127136060D01*
X113478653Y-127228848D01*
X113551131Y-127319388D01*
X113620314Y-127405978D01*
X113684841Y-127486918D01*
X113743347Y-127560506D01*
X113794470Y-127625044D01*
X113836847Y-127678829D01*
X113869115Y-127720162D01*
X113889910Y-127747342D01*
X113897869Y-127758668D01*
X113896111Y-127762771D01*
X113883230Y-127783334D01*
X113858885Y-127819561D01*
X113824247Y-127869824D01*
X113780486Y-127932492D01*
X113728775Y-128005936D01*
X113670284Y-128088527D01*
X113606184Y-128178636D01*
X113537646Y-128274631D01*
X113465843Y-128374885D01*
X113391944Y-128477768D01*
X113317121Y-128581650D01*
X113242545Y-128684901D01*
X113169387Y-128785892D01*
X113098819Y-128882994D01*
X113032011Y-128974577D01*
X112970135Y-129059011D01*
X112914361Y-129134667D01*
X112865862Y-129199916D01*
X112825807Y-129253128D01*
X112795369Y-129292673D01*
X112774944Y-129318026D01*
X112728899Y-129372295D01*
X112678612Y-129428775D01*
X112631815Y-129478669D01*
X112540651Y-129572400D01*
X111842445Y-129572400D01*
X111911356Y-129572349D01*
X112009607Y-129572091D01*
X112099030Y-129571637D01*
X112177333Y-129571010D01*
X112242223Y-129570235D01*
X112291411Y-129569335D01*
X112322604Y-129568334D01*
X112333511Y-129567257D01*
X112332322Y-129564037D01*
X112322176Y-129546452D01*
X112305040Y-129520158D01*
X112296540Y-129507691D01*
X112287329Y-129493622D01*
X112279233Y-129479351D01*
X112272185Y-129463479D01*
X112266117Y-129444609D01*
X112260961Y-129421341D01*
X112256651Y-129392278D01*
X112253119Y-129356021D01*
X112250297Y-129311170D01*
X112248118Y-129256328D01*
X112246514Y-129190097D01*
X112245419Y-129111077D01*
X112244765Y-129017871D01*
X112244484Y-128909079D01*
X112244509Y-128783303D01*
X112244772Y-128639145D01*
X112245206Y-128475207D01*
X112245745Y-128290089D01*
X112246279Y-128111232D01*
X112246805Y-127952374D01*
X112247350Y-127813316D01*
X112247945Y-127692665D01*
X112248619Y-127589028D01*
X112249403Y-127501011D01*
X112250326Y-127427223D01*
X112251419Y-127366269D01*
X112252712Y-127316757D01*
X112254235Y-127277293D01*
X112256019Y-127246484D01*
X112258092Y-127222938D01*
X112260486Y-127205260D01*
X112263230Y-127192059D01*
X112266356Y-127181940D01*
X112269892Y-127173511D01*
X112273791Y-127165375D01*
X112293438Y-127128544D01*
X112312225Y-127098391D01*
X112313272Y-127096908D01*
X112327602Y-127074659D01*
X112333511Y-127061702D01*
X112332504Y-127061249D01*
X112315305Y-127059803D01*
X112278656Y-127058480D01*
X112224962Y-127057316D01*
X112156630Y-127056347D01*
X112076064Y-127055611D01*
X111985670Y-127055142D01*
X111887853Y-127054978D01*
X111442195Y-127054978D01*
X111439120Y-128231845D01*
X111436045Y-129408711D01*
X111409407Y-129467622D01*
X111397485Y-129492183D01*
X111380246Y-129522434D01*
X111367074Y-129539560D01*
X111359076Y-129547591D01*
X111351378Y-129562493D01*
X111059942Y-129562493D01*
X111059474Y-129470029D01*
X111059050Y-129354617D01*
X111058706Y-129224160D01*
X111058434Y-129077716D01*
X111058227Y-128914344D01*
X111058076Y-128733101D01*
X111057972Y-128533048D01*
X111057908Y-128313241D01*
X111057876Y-128072739D01*
X111057867Y-127810602D01*
X111057867Y-125619031D01*
X111096249Y-125580649D01*
X111123355Y-125556911D01*
X111150253Y-125545111D01*
X111186560Y-125542267D01*
X111238489Y-125542267D01*
X111238489Y-125630206D01*
X111240427Y-125680102D01*
X111259199Y-125790523D01*
X111296217Y-125891987D01*
X111349369Y-125983152D01*
X111416546Y-126062673D01*
X111495638Y-126129205D01*
X111584534Y-126181406D01*
X111681125Y-126217930D01*
X111783300Y-126237434D01*
X111888950Y-126238573D01*
X111995964Y-126220005D01*
X112102232Y-126180384D01*
X112199219Y-126122516D01*
X112284293Y-126047684D01*
X112353015Y-125959615D01*
X112403918Y-125860616D01*
X112435535Y-125752993D01*
X112446400Y-125639054D01*
X112446400Y-125542267D01*
X114066753Y-125542267D01*
X114277897Y-125542280D01*
X114482020Y-125542330D01*
X114665686Y-125542430D01*
X114829991Y-125542592D01*
X114976029Y-125542829D01*
X115104894Y-125543153D01*
X115217683Y-125543575D01*
X115315488Y-125544109D01*
X115399404Y-125544767D01*
X115470527Y-125545561D01*
X115529950Y-125546504D01*
X115578768Y-125547608D01*
X115618077Y-125548884D01*
X115648969Y-125550347D01*
X115672541Y-125552007D01*
X115689886Y-125553878D01*
X115702099Y-125555972D01*
X115710275Y-125558300D01*
X115715508Y-125560876D01*
X115721504Y-125564445D01*
X115728279Y-125567978D01*
X115734478Y-125571488D01*
X115740126Y-125575918D01*
X115745247Y-125582208D01*
X115749869Y-125591301D01*
X115754015Y-125604139D01*
X115757713Y-125621662D01*
X115760987Y-125644813D01*
X115763863Y-125674534D01*
X115766367Y-125711765D01*
X115768524Y-125757449D01*
X115770360Y-125812527D01*
X115771900Y-125877941D01*
X115773170Y-125954633D01*
X115774195Y-126043544D01*
X115775001Y-126145617D01*
X115775034Y-126151867D01*
X115775614Y-126261792D01*
G37*
%TD*%
M02*
