%TF.GenerationSoftware,KiCad,Pcbnew,9.0.2*%
%TF.CreationDate,2025-08-31T01:54:14-04:00*%
%TF.ProjectId,MCU_Datalogger,4d43555f-4461-4746-916c-6f676765722e,1*%
%TF.SameCoordinates,Original*%
%TF.FileFunction,Soldermask,Top*%
%TF.FilePolarity,Negative*%
%FSLAX46Y46*%
G04 Gerber Fmt 4.6, Leading zero omitted, Abs format (unit mm)*
G04 Created by KiCad (PCBNEW 9.0.2) date 2025-08-31 01:54:14*
%MOMM*%
%LPD*%
G01*
G04 APERTURE LIST*
G04 Aperture macros list*
%AMRoundRect*
0 Rectangle with rounded corners*
0 $1 Rounding radius*
0 $2 $3 $4 $5 $6 $7 $8 $9 X,Y pos of 4 corners*
0 Add a 4 corners polygon primitive as box body*
4,1,4,$2,$3,$4,$5,$6,$7,$8,$9,$2,$3,0*
0 Add four circle primitives for the rounded corners*
1,1,$1+$1,$2,$3*
1,1,$1+$1,$4,$5*
1,1,$1+$1,$6,$7*
1,1,$1+$1,$8,$9*
0 Add four rect primitives between the rounded corners*
20,1,$1+$1,$2,$3,$4,$5,0*
20,1,$1+$1,$4,$5,$6,$7,0*
20,1,$1+$1,$6,$7,$8,$9,0*
20,1,$1+$1,$8,$9,$2,$3,0*%
G04 Aperture macros list end*
%ADD10C,1.700000*%
%ADD11R,1.700000X1.700000*%
%ADD12RoundRect,0.250000X0.475000X-0.250000X0.475000X0.250000X-0.475000X0.250000X-0.475000X-0.250000X0*%
%ADD13C,2.100000*%
%ADD14RoundRect,0.250000X-0.475000X0.250000X-0.475000X-0.250000X0.475000X-0.250000X0.475000X0.250000X0*%
%ADD15RoundRect,0.243750X0.243750X0.456250X-0.243750X0.456250X-0.243750X-0.456250X0.243750X-0.456250X0*%
%ADD16RoundRect,0.250001X0.949999X-1.499999X0.949999X1.499999X-0.949999X1.499999X-0.949999X-1.499999X0*%
%ADD17RoundRect,0.250001X1.499999X0.949999X-1.499999X0.949999X-1.499999X-0.949999X1.499999X-0.949999X0*%
%ADD18RoundRect,0.094250X-0.282750X-0.742750X0.282750X-0.742750X0.282750X0.742750X-0.282750X0.742750X0*%
%ADD19RoundRect,0.094250X-0.742750X-0.282750X0.742750X-0.282750X0.742750X0.282750X-0.742750X0.282750X0*%
%ADD20RoundRect,0.162500X0.162500X-0.650000X0.162500X0.650000X-0.162500X0.650000X-0.162500X-0.650000X0*%
%ADD21RoundRect,0.250000X-0.450000X0.262500X-0.450000X-0.262500X0.450000X-0.262500X0.450000X0.262500X0*%
%ADD22RoundRect,0.250000X0.450000X-0.262500X0.450000X0.262500X-0.450000X0.262500X-0.450000X-0.262500X0*%
%ADD23RoundRect,0.243750X-0.243750X-0.456250X0.243750X-0.456250X0.243750X0.456250X-0.243750X0.456250X0*%
%ADD24RoundRect,0.162500X0.650000X0.162500X-0.650000X0.162500X-0.650000X-0.162500X0.650000X-0.162500X0*%
%ADD25RoundRect,0.099250X0.987750X0.297750X-0.987750X0.297750X-0.987750X-0.297750X0.987750X-0.297750X0*%
G04 APERTURE END LIST*
D10*
%TO.C,J2*%
X105410000Y-116840000D03*
X107950000Y-116840000D03*
X110490000Y-116840000D03*
D11*
X113030000Y-116840000D03*
%TD*%
D12*
%TO.C,C2*%
X141605000Y-114620000D03*
X141605000Y-116520000D03*
%TD*%
D13*
%TO.C,H2*%
X93980000Y-134620000D03*
%TD*%
D14*
%TO.C,C5*%
X120015000Y-131125000D03*
X120015000Y-129225000D03*
%TD*%
D15*
%TO.C,D2*%
X93042500Y-119380000D03*
X94917500Y-119380000D03*
%TD*%
D13*
%TO.C,H1*%
X93980000Y-107315000D03*
%TD*%
%TO.C,H4*%
X141605000Y-134620000D03*
%TD*%
%TO.C,H3*%
X141605000Y-107315000D03*
%TD*%
D10*
%TO.C,J1*%
X140970000Y-130175000D03*
X140970000Y-127635000D03*
X140970000Y-125095000D03*
D11*
X140970000Y-122555000D03*
%TD*%
D10*
%TO.C,J4*%
X128900000Y-131445000D03*
X126360000Y-131445000D03*
X128900000Y-128905000D03*
X126360000Y-128905000D03*
X128900000Y-126365000D03*
D11*
X126360000Y-126365000D03*
%TD*%
D10*
%TO.C,J3*%
X120015000Y-135255000D03*
X117475000Y-135255000D03*
X114935000Y-135255000D03*
X112395000Y-135255000D03*
X109855000Y-135255000D03*
X107315000Y-135255000D03*
X104775000Y-135255000D03*
X102235000Y-135255000D03*
D11*
X99695000Y-135255000D03*
%TD*%
D16*
%TO.C,Y2*%
X135890000Y-122615000D03*
X135890000Y-117415000D03*
%TD*%
D17*
%TO.C,Y1*%
X130235000Y-117475000D03*
X125035000Y-117475000D03*
%TD*%
D18*
%TO.C,U4*%
X106420000Y-129900000D03*
X107220000Y-129900000D03*
X108020000Y-129900000D03*
X108820000Y-129900000D03*
X109620000Y-129900000D03*
X110420000Y-129900000D03*
X111220000Y-129900000D03*
X112020000Y-129900000D03*
X112020000Y-121560000D03*
X111220000Y-121560000D03*
X110420000Y-121560000D03*
X109620000Y-121560000D03*
X108820000Y-121560000D03*
X108020000Y-121560000D03*
X107220000Y-121560000D03*
X106420000Y-121560000D03*
D19*
X105050000Y-122930000D03*
X105050000Y-123730000D03*
X105050000Y-124530000D03*
X105050000Y-125330000D03*
X105050000Y-126130000D03*
X105050000Y-126930000D03*
X105050000Y-127730000D03*
X105050000Y-128530000D03*
X113390000Y-128530000D03*
X113390000Y-127730000D03*
X113390000Y-126930000D03*
X113390000Y-126130000D03*
X113390000Y-125330000D03*
X113390000Y-124530000D03*
X113390000Y-123730000D03*
X113390000Y-122930000D03*
%TD*%
D20*
%TO.C,U2*%
X104775000Y-113442500D03*
X106045000Y-113442500D03*
X107315000Y-113442500D03*
X108585000Y-113442500D03*
X108585000Y-106267500D03*
X107315000Y-106267500D03*
X106045000Y-106267500D03*
X104775000Y-106267500D03*
%TD*%
D21*
%TO.C,R7*%
X99060000Y-129540000D03*
X99060000Y-131365000D03*
%TD*%
%TO.C,R6*%
X120015000Y-120372500D03*
X120015000Y-122197500D03*
%TD*%
D22*
%TO.C,R5*%
X99060000Y-127277500D03*
X99060000Y-125452500D03*
%TD*%
D21*
%TO.C,R4*%
X99060000Y-121007500D03*
X99060000Y-122832500D03*
%TD*%
D22*
%TO.C,R3*%
X99060000Y-119022500D03*
X99060000Y-117197500D03*
%TD*%
D21*
%TO.C,R2*%
X99060000Y-112395000D03*
X99060000Y-114220000D03*
%TD*%
D22*
%TO.C,R1*%
X99060000Y-108862500D03*
X99060000Y-107037500D03*
%TD*%
D23*
%TO.C,D1*%
X93042500Y-114300000D03*
X94917500Y-114300000D03*
%TD*%
D14*
%TO.C,C4*%
X120015000Y-124780000D03*
X120015000Y-126680000D03*
%TD*%
%TO.C,C3*%
X136525000Y-107000000D03*
X136525000Y-108900000D03*
%TD*%
D12*
%TO.C,C1*%
X136525000Y-113345000D03*
X136525000Y-111445000D03*
%TD*%
D11*
%TO.C,BT1*%
X93980000Y-125095000D03*
D10*
X93980000Y-127635000D03*
%TD*%
D24*
%TO.C,U1*%
X131222500Y-111125000D03*
X131222500Y-109855000D03*
X131222500Y-108585000D03*
X131222500Y-107315000D03*
X124047500Y-107315000D03*
X124047500Y-108585000D03*
X124047500Y-109855000D03*
X124047500Y-111125000D03*
%TD*%
D25*
%TO.C,U3*%
X119315000Y-111760000D03*
X119315000Y-110490000D03*
X119315000Y-109220000D03*
X119315000Y-107950000D03*
X114365000Y-107950000D03*
X114365000Y-109220000D03*
X114365000Y-110490000D03*
X114365000Y-111760000D03*
%TD*%
M02*
